<svg xmlns="http://www.w3.org/2000/svg" xmlns:xlink="http://www.w3.org/1999/xlink" viewBox="0 0 2000 2000"><defs><style>.cls-1{fill:url(#Unbenannter_Verlauf_3);}.cls-2{fill:#021851;}</style><radialGradient id="Unbenannter_Verlauf_3" cx="-1745.96" cy="-1476.6" r="0.69" gradientTransform="matrix(2000, 0, 0, -2072, 3492947, -3058525.64)" gradientUnits="userSpaceOnUse"><stop offset="0" stop-color="#0fe"/><stop offset="1" stop-color="#0f8"/></radialGradient></defs><g id="Ebene_2" data-name="Ebene 2"><g id="Ebene_1-2" data-name="Ebene 1"><g id="Ebene_2-2" data-name="Ebene 2"><g id="Ebene_1-2-2" data-name="Ebene 1-2"><g id="Gruppe_15006" data-name="Gruppe 15006"><g id="Layer_1-9" data-name="Layer 1-9"><rect id="Rechteck_1-9" data-name="Rechteck 1-9" class="cls-1" width="2000" height="2000" rx="1000"/></g></g><g id="Amazing_Business_Ideas" data-name="Amazing Business Ideas"><g id="Gruppe_9136" data-name="Gruppe 9136"><path id="Pfad_17961" data-name="Pfad 17961" class="cls-2" d="M765.63,1075.44a100.47,100.47,0,0,1-33.31-15.69l14.73-32.66a99.48,99.48,0,0,0,28.63,14.19,108,108,0,0,0,33.15,5.37c12.31,0,21.38-1.85,27.29-5.49a16.62,16.62,0,0,0,8.82-14.57,14,14,0,0,0-5.21-11.11,39.4,39.4,0,0,0-13.38-7.1c-5.43-1.79-12.81-3.73-22-5.87a307.33,307.33,0,0,1-35.2-10.11,56.92,56.92,0,0,1-23.42-16.32,44.24,44.24,0,0,1-9.76-30,52.31,52.31,0,0,1,8.82-29.55,59.66,59.66,0,0,1,26.62-21,108.59,108.59,0,0,1,43.49-7.79,145.14,145.14,0,0,1,35,4.3,103.48,103.48,0,0,1,29.95,12.31l-13.4,32.9a104.54,104.54,0,0,0-51.9-14.72c-12.12,0-21.1,2-26.87,5.9A18,18,0,0,0,779,944a15.23,15.23,0,0,0,10.05,14.32,158.57,158.57,0,0,0,30.61,9.23,302.31,302.31,0,0,1,35,10.17,57.91,57.91,0,0,1,23.43,16q9.75,11,9.76,29.67a51.34,51.34,0,0,1-8.95,29.32,60.53,60.53,0,0,1-26.9,21,109.72,109.72,0,0,1-43.61,7.75A152.87,152.87,0,0,1,765.63,1075.44Z"/><path id="Pfad_17962" data-name="Pfad 17962" class="cls-2" d="M903.52,907.6a22.66,22.66,0,0,1-1.15-32c.37-.4.76-.78,1.15-1.15a26.55,26.55,0,0,1,18.84-6.69,27.21,27.21,0,0,1,18.84,6.44,20.53,20.53,0,0,1,7.22,16,22.69,22.69,0,0,1-7.22,17.24,26.27,26.27,0,0,1-18.84,6.84A26.66,26.66,0,0,1,903.52,907.6Zm-2.13,26.75h41.72v143.92H901.39Z"/><path id="Pfad_17963" data-name="Pfad 17963" class="cls-2" d="M1117,934.35v119.84q0,39.55-20.6,58.83t-60.18,19.28a150.39,150.39,0,0,1-39.59-5.21,86.67,86.67,0,0,1-31-14.73l16.58-29.95a67.76,67.76,0,0,0,23,11.9,91,91,0,0,0,27.72,4.52q21.66,0,32-9.76t10.3-29.54v-6.28q-16.29,18-45.49,17.92a76.12,76.12,0,0,1-36.23-8.66A66.31,66.31,0,0,1,967.35,1038a73.64,73.64,0,0,1,0-72.74,66.31,66.31,0,0,1,26.09-24.49,76.59,76.59,0,0,1,36.32-8.57q31.4,0,47.63,20.59V934.35Zm-51.77,93a36.16,36.16,0,0,0,0-51.11,38.53,38.53,0,0,0-27.13-9.76,39.05,39.05,0,0,0-27.31,9.76,35.91,35.91,0,0,0-.32,50.79c.1.11.21.22.32.32a38.94,38.94,0,0,0,27.31,9.74,38.2,38.2,0,0,0,27.13-9.77Z"/><path id="Pfad_17964" data-name="Pfad 17964" class="cls-2" d="M1273.08,948.14q16.44,16,16.45,47.62v82.38h-41.76v-76q0-17.08-7.47-25.53a27.4,27.4,0,0,0-21.66-8.44,33.25,33.25,0,0,0-25.12,9.76q-9.42,9.79-9.42,29v71.14h-41.69V934.35h39.87v16.92a55.4,55.4,0,0,1,20.6-14.06,71.59,71.59,0,0,1,27-4.93Q1256.63,932.22,1273.08,948.14Z"/><path id="Pfad_17965" data-name="Pfad 17965" class="cls-2" d="M1458.84,934.35v143.92h-39.59v-17.11a55.19,55.19,0,0,1-19.81,14.31,62.26,62.26,0,0,1-24.86,5q-28.26,0-44.93-16.32T1313,1015.7V934.38h41.76v75.16q0,34.76,29.13,34.79a31.37,31.37,0,0,0,24.08-9.76q9.08-9.77,9.08-29V934.35Z"/><path id="Pfad_17966" data-name="Pfad 17966" class="cls-2" d="M1711.48,948.14q15.91,15.89,15.92,47.75v82.38h-41.73v-76q0-17.07-7.09-25.52a25.11,25.11,0,0,0-20.19-8.45,29.7,29.7,0,0,0-23.26,9.42q-8.58,9.42-8.58,28.26v72.21h-41.72v-76q0-33.94-27.28-34a29.56,29.56,0,0,0-23,9.42q-8.57,9.42-8.53,28.25v72.21h-41.76V934.35h39.87v16.58A52.73,52.73,0,0,1,1543.77,937a66.54,66.54,0,0,1,25.55-4.8,61.57,61.57,0,0,1,27.57,6,48.61,48.61,0,0,1,19.77,17.51A59,59,0,0,1,1639,938.37a71.09,71.09,0,0,1,29.57-6.28Q1695.59,932.22,1711.48,948.14Z"/></g></g><path class="cls-2" d="M442.67,829.81A170.19,170.19,0,1,0,612.83,1000v0A170.18,170.18,0,0,0,442.67,829.81ZM559.18,954a24.86,24.86,0,0,1,0,35.1l-35.51,35.48-13.37-13.37,35.47-35.51a5.83,5.83,0,0,0,0-8.26l0,0-12-12.15-10,9.95-13.37-13.4,23.36-23.36Zm-81.63,2L491,942.64l38.87,38.84-13.41,13.4Zm-23.86-72.56a24.86,24.86,0,0,1,35.1,0L514.32,909l-28.48,28.47-25.55,25.56a24.84,24.84,0,0,1-35.07,0l-7-7,13.41-13.41,7,7a5.84,5.84,0,0,0,8.26,0l0,0L487.54,909l-12.15-12.15a5.83,5.83,0,0,0-8.26,0l0,0-5.81,5.8L447.88,889.3Zm-54.91,81.63-13.4-13.41,38.86-38.83,13.38,13.4Zm-2.07-81.63a24.86,24.86,0,0,1,35.1,0L467.32,919l-13.38,13.47-35.5-35.51a5.84,5.84,0,0,0-8.26,0l0,0L398,909.08,408,919l-13.41,13.41-23.35-23.36ZM326.23,954l25.55-25.55,54,54a24.82,24.82,0,0,1,0,35.1l-7.09,7-13.41-13.37,7-7a5.9,5.9,0,0,0,0-8.28l-40.82-40.63-12.12,12.15a5.84,5.84,0,0,0,0,8.26l0,0,5.81,5.81-13.4,13.4L326.26,989a24.86,24.86,0,0,1,0-35Zm81.63,90-13.41,13.41-38.74-38.87,13.4-13.4Zm-81.63,2a24.82,24.82,0,0,1,0-35.07l35.51-35.51L375.17,989l-35.51,35.51a5.85,5.85,0,0,0,0,8.26l0,0,12.15,12.15,10-10,13.4,13.41-23.39,23.36Zm105.58,70.51a24.86,24.86,0,0,1-35.1,0L371.19,1091l54-54a24.84,24.84,0,0,1,35.07,0l7,7-13.41,13.41-7-7a5.84,5.84,0,0,0-8.26,0l0,0L397.81,1091,410,1103.13a5.83,5.83,0,0,0,8.26,0l0,0,5.84-5.81,13.37,13.38Zm54.91-81.63,13.41,13.41-38.84,38.83-13.37-13.43Zm2.07,81.63a24.86,24.86,0,0,1-35.1,0L418.18,1081l13.41-13.4,35.51,35.5a5.83,5.83,0,0,0,8.26,0l0,0L487.54,1091l-10-10,13.41-13.4L514.35,1091ZM559.27,1046l-25.55,25.55-54-54a24.86,24.86,0,0,1,0-35.1l6.94-7L500,988.82l-7,7a5.83,5.83,0,0,0,0,8.25l0,0,40.69,40.63,12.15-12.15a5.88,5.88,0,0,0,0-8.29l-5.87-5.81,13.4-13.4,5.81,5.84a24.81,24.81,0,0,1,.1,35.07Z"/></g></g></g></g></svg>