<svg xmlns="http://www.w3.org/2000/svg" xmlns:xlink="http://www.w3.org/1999/xlink" viewBox="0 0 2000 2000"><defs><style>.cls-1{fill:url(#Unbenannter_Verlauf_3);}.cls-2{fill:#021851;}</style><radialGradient id="Unbenannter_Verlauf_3" cx="9716.88" cy="8628.97" r="0.68" gradientTransform="matrix(2000, 0, 0, -2072, -19432724.08, 17880202.86)" gradientUnits="userSpaceOnUse"><stop offset="0" stop-color="#0fe"/><stop offset="1" stop-color="#0f8"/></radialGradient></defs><g id="Ebene_2" data-name="Ebene 2"><g id="Ebene_1-2" data-name="Ebene 1"><g id="Ebene_2-2" data-name="Ebene 2"><g id="Ebene_1-2-2" data-name="Ebene 1-2"><g id="Gruppe_15013" data-name="Gruppe 15013"><g id="Gruppe_14999" data-name="Gruppe 14999"><g id="Layer_1-4" data-name="Layer 1-4"><rect id="Rechteck_1-4" data-name="Rechteck 1-4" class="cls-1" width="2000" height="2000" rx="1000"/></g></g><path id="Pfad_30196" data-name="Pfad 30196" class="cls-2" d="M1000,272.61c-401.74,0-727.4,325.66-727.4,727.4s325.66,727.38,727.4,727.38,727.4-325.66,727.4-727.38S1401.72,272.61,1000,272.61Zm498.08,530.63a106.18,106.18,0,0,1,0,150L1346.31,1105,1289,1047.72,1440.8,896a25.07,25.07,0,0,0,0-35.42l-51.9-51.9-42.58,42.58L1289,793.93l99.86-99.86Zm-349.28,8.81,57.28-57.29,166.06,166.06-57.29,57.29Zm-102-310.14a106.2,106.2,0,0,1,150,0L1306,611.07l-121.8,121.79L1075,842a106.18,106.18,0,0,1-150,0l-30-30,57.28-57.28,30,30a25.07,25.07,0,0,0,35.42,0L1191.38,611.1l-51.9-51.9a25.09,25.09,0,0,0-35.44,0l-24.87,24.87-57.28-57.28ZM812,851.19l-57.27-57.27,166-166L978,685.2Zm-8.78-349.28a106.18,106.18,0,0,1,150,0L1105,653.68,1047.72,711,896,559.2a25.08,25.08,0,0,0-35.43,0l-51.9,51.9,42.59,42.59L793.92,711l-99.86-99.86ZM501.92,803.24,611.1,694.06,842.05,925a106.2,106.2,0,0,1,0,150l-30,30-57.27-57.28,30-30a25.1,25.1,0,0,0,0-35.43L611.09,808.62l-51.9,51.91a25.07,25.07,0,0,0,0,35.42l24.88,24.87-57.28,57.29-24.88-24.88A106.18,106.18,0,0,1,501.92,803.24ZM851.22,1188l-57.29,57.29L627.85,1079.18l57.3-57.29Zm-349.3,8.81a106.2,106.2,0,0,1,0-150L653.68,895,711,952.28,559.19,1104.05a25.07,25.07,0,0,0,0,35.42l51.9,51.91,42.58-42.58L711,1206.07l-99.87,99.86Zm451.3,301.31a106.14,106.14,0,0,1-150,0L694.06,1388.9,925,1158a106.18,106.18,0,0,1,150,0l30,30-57.27,57.28-30-30a25.08,25.08,0,0,0-35.43,0L808.62,1388.9l51.9,51.9a25.08,25.08,0,0,0,35.43,0l24.86-24.87,57.29,57.29ZM1188,1148.79l57.28,57.28-166,166.06L1022,1314.85Zm8.8,349.29a106.14,106.14,0,0,1-150,0L895,1346.33l57.29-57.3L1104,1440.8a25.09,25.09,0,0,0,35.44,0l51.9-51.91-42.59-42.59L1206,1289l99.87,99.87Zm301.34-301.32L1388.9,1306l-231-231a106.18,106.18,0,0,1,0-150l30-30,57.27,57.28-30,30a25.08,25.08,0,0,0,0,35.42l173.67,173.67,51.9-51.9a25.09,25.09,0,0,0,0-35.44l-24.87-24.86,57.28-57.3,24.87,24.88a106.18,106.18,0,0,1,0,150Z"/></g></g></g></g></g></svg>