<svg xmlns="http://www.w3.org/2000/svg" xmlns:xlink="http://www.w3.org/1999/xlink" viewBox="0 0 2000 2000"><defs><style>.cls-1{fill:url(#Unbenannter_Verlauf_2);}.cls-2{fill:#fff;}</style><radialGradient id="Unbenannter_Verlauf_2" cx="-8722.68" cy="8577.39" r="0.68" gradientTransform="matrix(2000, 0, 0, -2072, 17446386.1, 17773346.82)" gradientUnits="userSpaceOnUse"><stop offset="0" stop-color="#09f"/><stop offset="1" stop-color="#06f"/></radialGradient></defs><g id="Ebene_2" data-name="Ebene 2"><g id="Ebene_1-2" data-name="Ebene 1"><g id="Ebene_2-2" data-name="Ebene 2"><g id="Ebene_1-2-2" data-name="Ebene 1-2"><g id="Gruppe_15018" data-name="Gruppe 15018"><g id="Gruppe_15010" data-name="Gruppe 15010"><g id="Layer_1-11" data-name="Layer 1-11"><rect id="Rechteck_1-11" data-name="Rechteck 1-11" class="cls-1" width="2000" height="2000" rx="1000"/></g></g><g id="Ebene_2-2-2" data-name="Ebene 2-2"><g id="Ebene_1-2-2-2" data-name="Ebene 1-2-2"><g id="Amazing_Business_Ideas-7" data-name="Amazing Business Ideas-7"><g id="Gruppe_9136-7" data-name="Gruppe 9136-7"><path id="Pfad_17961-7" data-name="Pfad 17961-7" class="cls-2" d="M321.3,1420.1a147.3,147.3,0,0,1-48.7-22.88l21.51-47.77A145.32,145.32,0,0,0,336,1370.19a157.19,157.19,0,0,0,48.48,7.83q27,0,39.88-8a24.17,24.17,0,0,0,12.9-21.3,20.31,20.31,0,0,0-7.59-16.23,57.27,57.27,0,0,0-19.55-10.36q-11.92-3.93-32.26-8.6a449.25,449.25,0,0,1-51.24-14.87,83.37,83.37,0,0,1-34.24-23.82A64.35,64.35,0,0,1,278.07,1231a76.09,76.09,0,0,1,12.9-43.2,86.62,86.62,0,0,1,38.92-30.66,158.64,158.64,0,0,1,63.54-11.39,210.8,210.8,0,0,1,51.24,6.32,151.91,151.91,0,0,1,43.8,18l-19.57,48.07a152.54,152.54,0,0,0-75.9-21.5q-26.56,0-39.3,8.61a26.22,26.22,0,0,0-12.7,22.69,22.19,22.19,0,0,0,14.66,20.92,231.86,231.86,0,0,0,44.79,13.5,442.28,442.28,0,0,1,51.22,14.86,84.79,84.79,0,0,1,34.23,23.47q14.28,16,14.27,43.39a74.87,74.87,0,0,1-13.09,42.83,88.13,88.13,0,0,1-39.32,30.68A159.89,159.89,0,0,1,384.07,1429,224.82,224.82,0,0,1,321.3,1420.1Z"/><path id="Pfad_17962-7" data-name="Pfad 17962-7" class="cls-2" d="M522.89,1174.7a33.14,33.14,0,0,1-1.67-46.83h0c.54-.58,1.09-1.13,1.67-1.66a38.71,38.71,0,0,1,27.37-9.8,39.71,39.71,0,0,1,27.38,9.39,30.12,30.12,0,0,1,10.56,23.47,33.19,33.19,0,0,1-10.56,25.22,38.24,38.24,0,0,1-27.38,10A38.66,38.66,0,0,1,522.89,1174.7Zm-3.13,39.12h61v210.39h-61Z"/><path id="Pfad_17963-7" data-name="Pfad 17963-7" class="cls-2" d="M835,1213.81V1389q0,57.87-30.11,86t-88,28.16a220.43,220.43,0,0,1-57.88-7.43,126.69,126.69,0,0,1-45.36-21.5l24.24-43.8a100.09,100.09,0,0,0,33.63,17.39,133.63,133.63,0,0,0,40.66,6.45q31.7,0,46.75-14.27T774,1396.83v-9Q750.11,1414,707.47,1414a111.7,111.7,0,0,1-53-12.65,96.8,96.8,0,0,1-38.13-35.78,107.56,107.56,0,0,1,0-106.37,96.89,96.89,0,0,1,38.13-35.79,111.81,111.81,0,0,1,53-12.65q45.76,0,69.58,30.11V1213.8Zm-75.66,135.9a52.93,52.93,0,0,0,0-74.7,56.21,56.21,0,0,0-39.7-14.27,56.88,56.88,0,0,0-39.9,14.27,52.42,52.42,0,0,0-.57,74.13l.57.57a57,57,0,0,0,39.9,14.27,56.23,56.23,0,0,0,39.65-14.27Z"/><path id="Pfad_17964-7" data-name="Pfad 17964-7" class="cls-2" d="M1063.16,1234.14q24,23.47,24,69.58v120.47h-61V1313.12q0-25-11-37.36a40.2,40.2,0,0,0-31.63-12.31,48.6,48.6,0,0,0-36.76,14.27q-13.69,14.28-13.69,42.43v104h-61V1213.81h58.26v24.65a80.83,80.83,0,0,1,30.08-20.57,105,105,0,0,1,39.5-7.2Q1039.09,1210.69,1063.16,1234.14Z"/><path id="Pfad_17965-7" data-name="Pfad 17965-7" class="cls-2" d="M1334.76,1213.81v210.4h-57.89v-25a81.07,81.07,0,0,1-28.9,20.92,91.05,91.05,0,0,1-36.37,7.23q-41.46,0-65.7-23.86t-24.24-70.84v-119h61v109.9q0,50.84,42.6,50.84a45.86,45.86,0,0,0,35.21-14.24q13.29-14.3,13.3-42.45V1213.83Z"/><path id="Pfad_17966-7" data-name="Pfad 17966-7" class="cls-2" d="M1704.12,1233.94q23.27,23.28,23.27,69.82v120.47h-61V1313.16q0-25-10.36-37.36a36.42,36.42,0,0,0-29.53-12.31,43.59,43.59,0,0,0-34,13.92q-12.52,13.9-12.52,41.25v105.56h-61V1313.16q0-49.67-39.89-49.67a43.09,43.09,0,0,0-33.64,13.92q-12.51,13.9-12.51,41.25v105.56h-61V1213.81h58.19v24.32a77.24,77.24,0,0,1,28.76-20.36,96.83,96.83,0,0,1,37.34-7,90.35,90.35,0,0,1,40.28,8.86,71.35,71.35,0,0,1,29,25.5,86.55,86.55,0,0,1,32.65-25.42,102.92,102.92,0,0,1,43.21-9Q1680.87,1210.7,1704.12,1233.94Z"/></g></g><path id="Pfad_30206" data-name="Pfad 30206" class="cls-2" d="M979.66,496.8c-137.41,0-248.8,111.39-248.8,248.8s111.39,248.8,248.8,248.8,248.8-111.33,248.8-248.8S1117.08,496.8,979.66,496.8ZM1150,678.3a36.33,36.33,0,0,1,0,51.31l-51.87,51.87-19.6-19.6,51.9-51.88a8.58,8.58,0,0,0,0-12.12l-17.71-17.71-14.56,14.56-19.63-19.57L1112.69,641Zm-119.47,3,19.6-19.59,56.8,56.79-19.65,19.6ZM995.67,575.23a36.32,36.32,0,0,1,51.3,0l37.34,37.35-41.64,41.64-37.35,37.4a36.3,36.3,0,0,1-51.3,0l-10.27-10.27,19.58-19.63L973.59,672a8.58,8.58,0,0,0,12.12,0l59.46-59.46-17.71-17.72a8.58,8.58,0,0,0-12.12,0l-8.5,8.5-19.69-19.58ZM915.37,694.7l-19.58-19.53,56.79-56.8,19.61,19.53Zm-3-119.47a36.33,36.33,0,0,1,51.31,0l51.87,51.87L996,646.68l-51.86-51.87a8.58,8.58,0,0,0-12.12,0l-17.71,17.72,14.52,14.57-19.6,19.6L875,612.54ZM809.3,678.3,846.64,641l79,79a36.32,36.32,0,0,1,0,51.31l-10.26,10.26L895.8,762l10.26-10.26a8.58,8.58,0,0,0,0-12.12L846.6,680.2l-17.71,17.72a8.58,8.58,0,0,0,0,12.12l8.5,8.5-19.54,19.57-8.55-8.54A36.32,36.32,0,0,1,809.3,678.3ZM928.77,809.86l-19.58,19.65-56.82-56.8,19.6-19.6Zm-119.47,3a36.32,36.32,0,0,1,0-51.3l51.87-51.86,19.58,19.6-51.87,51.86a8.58,8.58,0,0,0,0,12.12L846.59,811l14.58-14.57L880.75,816l-34.16,34.16ZM963.64,915.94a36.33,36.33,0,0,1-51.31,0L875,878.6l79-79a36.3,36.3,0,0,1,51.3,0l10.26,10.26L996,829.51l-10.26-10.26a8.58,8.58,0,0,0-12.12,0l-59.4,59.4,17.72,17.71a8.58,8.58,0,0,0,12.12,0l8.5-8.52,19.65,19.62Zm80.28-119.47,19.6,19.6-56.8,56.8L987.15,853.3Zm3,119.47a36.3,36.3,0,0,1-51.3,0l-51.87-51.87,19.57-19.61,51.87,51.87a8.57,8.57,0,0,0,12.11,0l17.7-17.71-14.58-14.56,19.6-19.6,34.16,34.16ZM1150,812.87l-37.36,37.35-79-78.9a36.32,36.32,0,0,1,0-51.3L1044,709.76l19.6,19.58-10.3,10.26a8.56,8.56,0,0,0,0,12.11h0l59.45,59.46,17.71-17.71a8.56,8.56,0,0,0,0-12.11h0l-8.51-8.5,19.6-19.6,8.5,8.51a36.59,36.59,0,0,1,0,51.14Z"/></g></g></g></g></g></g></g></svg>