<svg xmlns="http://www.w3.org/2000/svg" xmlns:xlink="http://www.w3.org/1999/xlink" viewBox="0 0 2000 2000"><defs><style>.cls-1{fill:url(#Unbenannter_Verlauf_3);}.cls-2{fill:#021851;}</style><radialGradient id="Unbenannter_Verlauf_3" cx="9742.12" cy="8628.97" r="0.68" gradientTransform="matrix(2000, 0, 0, -2072, -19483206.65, 17880202.86)" gradientUnits="userSpaceOnUse"><stop offset="0" stop-color="#0fe"/><stop offset="1" stop-color="#0f8"/></radialGradient></defs><g id="Ebene_2" data-name="Ebene 2"><g id="Ebene_1-2" data-name="Ebene 1"><g id="Ebene_2-2" data-name="Ebene 2"><g id="Ebene_1-2-2" data-name="Ebene 1-2"><g id="Gruppe_15012" data-name="Gruppe 15012"><g id="Gruppe_14997" data-name="Gruppe 14997"><g id="Layer_1-6" data-name="Layer 1-6"><rect id="Rechteck_1-6" data-name="Rechteck 1-6" class="cls-1" width="2000" height="2000" rx="1000"/></g></g><g id="Gruppe_14998" data-name="Gruppe 14998"><g id="Gruppe_14995-2" data-name="Gruppe 14995-2"><rect id="Rechteck_1881-2" data-name="Rechteck 1881-2" class="cls-2" x="586.23" y="1022.19" width="111.37" height="322.88" transform="translate(-648.94 800.58) rotate(-45)"/><path id="Pfad_30188-2" data-name="Pfad 30188-2" class="cls-2" d="M736.91,465.35,808.25,394a34.45,34.45,0,0,1,48.7,0L1065.6,602.65l78.75-78.75L935.71,315.25c-56.86-56.86-149.35-56.86-206.2,0L579.41,465.36,716.69,602.65l78.75-78.75Z"/><path id="Pfad_30189-2" data-name="Pfad 30189-2" class="cls-2" d="M465.36,1263.11,394,1191.74a34.47,34.47,0,0,1,0-48.7L602.63,934.39,523.9,855.64,315.25,1064.3c-56.86,56.85-56.84,149.36,0,206.21l150.1,150.08,137.28-137.28-78.73-78.74Z"/><path id="Pfad_30190-2" data-name="Pfad 30190-2" class="cls-2" d="M1143,394a34.47,34.47,0,0,1,48.7,0l71.35,71.35L1024.36,704.11a34.47,34.47,0,0,1-48.7,0l-41.27-41.24L855.64,741.6l41.27,41.26c56.85,56.84,149.33,56.84,206.18,0l150.11-150.1,167.39-167.4-150.1-150.08c-56.84-56.85-149.35-56.87-206.2,0l-34.19,34.18,78.73,78.75Z"/><rect id="Rechteck_1882-2" data-name="Rechteck 1882-2" class="cls-2" x="654.96" y="586.23" width="322.85" height="111.36" transform="translate(-214.79 765.28) rotate(-45)"/><path id="Pfad_30191-2" data-name="Pfad 30191-2" class="cls-2" d="M1534.64,736.91,1606,808.25a34.47,34.47,0,0,1,0,48.7L1397.37,1065.6l78.73,78.74L1684.75,935.7c56.85-56.85,56.85-149.34,0-206.2l-150.1-150.1L1397.36,716.69l78.75,78.75Z"/><rect id="Rechteck_1883-2" data-name="Rechteck 1883-2" class="cls-2" x="1302.39" y="654.96" width="111.37" height="322.85" transform="translate(-179.5 1199.42) rotate(-45)"/><path id="Pfad_30192-2" data-name="Pfad 30192-2" class="cls-2" d="M1606,1143a34.51,34.51,0,0,1,0,48.72l-71.35,71.35L1295.9,1024.36a34.45,34.45,0,0,1,0-48.7l41.25-41.25-78.75-78.75-41.25,41.24c-56.85,56.86-56.85,149.35,0,206.2l317.5,317.5,150.1-150.11c56.85-56.85,56.85-149.35,0-206.2l-34.2-34.2-78.75,78.77Z"/><path id="Pfad_30193-2" data-name="Pfad 30193-2" class="cls-2" d="M394,857a34.45,34.45,0,0,1,0-48.7l71.34-71.36L704.09,975.66a34.45,34.45,0,0,1,0,48.7l-41.24,41.24,78.75,78.75,41.24-41.24c56.86-56.86,56.87-149.37,0-206.22L465.36,579.41,315.25,729.51c-56.86,56.85-56.86,149.35,0,206.2l34.18,34.2,78.75-78.77Z"/><rect id="Rechteck_1884-2" data-name="Rechteck 1884-2" class="cls-2" x="1022.2" y="1302.39" width="322.86" height="111.36" transform="translate(-613.63 1234.72) rotate(-45)"/><path id="Pfad_30194-2" data-name="Pfad 30194-2" class="cls-2" d="M1263.11,1534.65,1191.76,1606a34.46,34.46,0,0,1-48.71,0L934.4,1397.35l-78.75,78.77,208.64,208.63c56.86,56.85,149.35,56.85,206.2,0l150.12-150.1-137.3-137.3-78.75,78.75Z"/><path id="Pfad_30195-2" data-name="Pfad 30195-2" class="cls-2" d="M857,1606a34.47,34.47,0,0,1-48.7,0L737,1534.65,975.64,1295.9a34.48,34.48,0,0,1,48.71,0l41.25,41.25,78.75-78.75-41.25-41.25c-56.85-56.85-149.34-56.83-206.2,0l-317.5,317.5,150.1,150.1c56.85,56.85,149.35,56.85,206.2,0l34.19-34.18-78.75-78.75Z"/></g></g></g></g></g></g></g></svg>