<svg xmlns="http://www.w3.org/2000/svg" xmlns:xlink="http://www.w3.org/1999/xlink" viewBox="0 0 2000 2000"><defs><style>.cls-1{fill:url(#Unbenannter_Verlauf_2);}.cls-2{fill:#fff;}</style><radialGradient id="Unbenannter_Verlauf_2" cx="717.55" cy="8577.39" r="0.68" gradientTransform="matrix(2000, 0, 0, -2072, -1434065.6, 17773346.82)" gradientUnits="userSpaceOnUse"><stop offset="0" stop-color="#09f"/><stop offset="1" stop-color="#06f"/></radialGradient></defs><g id="Ebene_2" data-name="Ebene 2"><g id="Ebene_1-2" data-name="Ebene 1"><g id="Ebene_2-2" data-name="Ebene 2"><g id="Ebene_1-2-2" data-name="Ebene 1-2"><g id="Gruppe_15021" data-name="Gruppe 15021"><g id="Gruppe_14994" data-name="Gruppe 14994"><g id="Layer_1" data-name="Layer 1"><rect id="Rechteck_1" data-name="Rechteck 1" class="cls-1" width="2000" height="2000" rx="1000"/></g></g><g id="Amazing_Business_Ideas" data-name="Amazing Business Ideas"><g id="Gruppe_9136" data-name="Gruppe 9136"><path id="Pfad_17961" data-name="Pfad 17961" class="cls-2" d="M321.29,1110.29a147.23,147.23,0,0,1-48.69-22.87l21.51-47.71A145.67,145.67,0,0,0,336,1060.44a157.48,157.48,0,0,0,48.48,7.83q27,0,39.9-8a24.22,24.22,0,0,0,12.9-21.3,20.36,20.36,0,0,0-7.62-16.23,57.8,57.8,0,0,0-19.55-10.36q-11.94-3.92-32.27-8.6a447,447,0,0,1-51.23-14.86A83.22,83.22,0,0,1,292.34,965a64.41,64.41,0,0,1-14.28-43.8A76.16,76.16,0,0,1,291,878a86.77,86.77,0,0,1,38.92-30.7A158.62,158.62,0,0,1,393.43,836a210.67,210.67,0,0,1,51.23,6.27,151.63,151.63,0,0,1,43.8,18l-19.55,48.1A152.74,152.74,0,0,0,393,886.82q-26.6,0-39.3,8.61A26.26,26.26,0,0,0,341,918.11,22.16,22.16,0,0,0,355.69,939a230.17,230.17,0,0,0,44.78,13.5,447,447,0,0,1,51.23,14.86,84.83,84.83,0,0,1,34.22,23.47q14.28,16,14.27,43.4a74.78,74.78,0,0,1-13.09,42.83,88.1,88.1,0,0,1-39.3,30.69,160.37,160.37,0,0,1-63.75,11.35A224,224,0,0,1,321.29,1110.29Z"/><path id="Pfad_17962" data-name="Pfad 17962" class="cls-2" d="M522.88,864.9a33.14,33.14,0,0,1-1.65-46.84h0q.79-.85,1.65-1.65a38.71,38.71,0,0,1,27.39-9.79A39.68,39.68,0,0,1,577.64,816a30.09,30.09,0,0,1,10.56,23.47,33.22,33.22,0,0,1-10.56,25.22,38.32,38.32,0,0,1-27.37,10A38.81,38.81,0,0,1,522.88,864.9ZM519.76,904h61v210.4h-61Z"/><path id="Pfad_17963" data-name="Pfad 17963" class="cls-2" d="M835,904v175.19q0,57.87-30.12,86t-88,28.15A220.4,220.4,0,0,1,659,1186a126.32,126.32,0,0,1-45.37-21.5l24.24-43.8a100.07,100.07,0,0,0,33.64,17.4,134.32,134.32,0,0,0,40.67,6.46q31.68,0,46.74-14.29t15.05-43.2v-9q-23.85,26.21-66.48,26.2a111.58,111.58,0,0,1-53-12.71,96.62,96.62,0,0,1-38.13-35.79,107.44,107.44,0,0,1,0-106.36,96.89,96.89,0,0,1,38.13-35.79,111.63,111.63,0,0,1,53-12.7q45.75,0,69.61,30.12V904Zm-75.67,135.89a52.91,52.91,0,0,0,0-74.7,56.21,56.21,0,0,0-39.7-14.27,56.89,56.89,0,0,0-39.89,14.27,52.42,52.42,0,0,0-.58,74.13l.58.57a56.84,56.84,0,0,0,39.89,14.27,56.16,56.16,0,0,0,39.7-14.28Z"/><path id="Pfad_17964" data-name="Pfad 17964" class="cls-2" d="M1063.16,924.35q24,23.46,24,69.61v120.47h-61V1003.36q0-25-11-37.35a40.12,40.12,0,0,0-31.68-12.32A48.59,48.59,0,0,0,946.8,968q-13.71,14.28-13.68,42.44v104h-61V904H930.4v24.63a81,81,0,0,1,30.11-20.53,104.85,104.85,0,0,1,39.5-7.23Q1039.09,900.89,1063.16,924.35Z"/><path id="Pfad_17965" data-name="Pfad 17965" class="cls-2" d="M1334.75,904v210.4h-57.88v-25a80.65,80.65,0,0,1-28.94,20.91,90.89,90.89,0,0,1-36.37,7.24q-41.46,0-65.7-23.85t-24.25-70.79V904h61v109.9q0,50.83,42.61,50.84a45.83,45.83,0,0,0,35.2-14.25q13.29-14.28,13.3-42.44V904Z"/><path id="Pfad_17966" data-name="Pfad 17966" class="cls-2" d="M1704.13,924.15q23.25,23.26,23.27,69.81v120.47h-61V1003.36q0-25-10.37-37.35a36.45,36.45,0,0,0-29.52-12.32,43.58,43.58,0,0,0-34,13.88Q1580,981.46,1580,1008.82v105.6h-61V1003.36q0-49.67-39.89-49.67a43.15,43.15,0,0,0-33.64,13.88Q1433,981.46,1433,1008.82v105.6h-61V904h58.28v24.24A77,77,0,0,1,1459,907.89a97,97,0,0,1,37.34-7,90.48,90.48,0,0,1,40.28,8.82,71.32,71.32,0,0,1,28.94,25.61,86.55,86.55,0,0,1,32.65-25.42,103,103,0,0,1,43.22-9Q1680.87,900.89,1704.13,924.15Z"/></g></g></g></g></g></g></g></svg>