<svg xmlns="http://www.w3.org/2000/svg" viewBox="0 0 1149.97 795.53"><defs><style>.cls-1{fill:#fff;}</style></defs><g id="Ebene_2" data-name="Ebene 2"><g id="Ebene_1-2" data-name="Ebene 1"><g id="Ebene_2-2" data-name="Ebene 2"><g id="Ebene_1-2-2" data-name="Ebene 1-2"><g id="Amazing_Business_Ideas" data-name="Amazing Business Ideas"><g id="Gruppe_9136" data-name="Gruppe 9136"><path id="Pfad_17961" data-name="Pfad 17961" d="M38.49,729.84A116.34,116.34,0,0,1,0,711.76L17,674a115,115,0,0,0,33.08,16.39,124.1,124.1,0,0,0,38.32,6.19q21.33,0,31.53-6.34a19.13,19.13,0,0,0,10.2-16.84,16.09,16.09,0,0,0-6-12.83,45.77,45.77,0,0,0-15.46-8.19q-9.42-3.11-25.5-6.8a353.74,353.74,0,0,1-40.5-11.75A65.89,65.89,0,0,1,15.6,615,50.86,50.86,0,0,1,4.32,580.39a60.15,60.15,0,0,1,10.2-34.15A68.52,68.52,0,0,1,45.28,522a125.51,125.51,0,0,1,50.23-9,166.56,166.56,0,0,1,40.5,5,119.7,119.7,0,0,1,34.62,14.21l-15.46,38a120.61,120.61,0,0,0-60-17q-21,0-31.07,6.81A20.72,20.72,0,0,0,54.1,578a17.53,17.53,0,0,0,11.59,16.53,182.33,182.33,0,0,0,35.4,10.67,351.57,351.57,0,0,1,40.49,11.75,67.08,67.08,0,0,1,27.06,18.55q11.28,12.67,11.28,34.3a59.19,59.19,0,0,1-10.35,33.86,69.63,69.63,0,0,1-31.08,24.25,126.4,126.4,0,0,1-50.38,9A177.22,177.22,0,0,1,38.49,729.84Z"/><path id="Pfad_17962" data-name="Pfad 17962" d="M197.84,535.86a26.2,26.2,0,0,1-1.32-37q.64-.69,1.32-1.32a30.62,30.62,0,0,1,21.64-7.74,31.36,31.36,0,0,1,21.64,7.42,23.8,23.8,0,0,1,8.35,18.55,26.24,26.24,0,0,1-8.35,19.94,30.23,30.23,0,0,1-21.64,7.88A30.57,30.57,0,0,1,197.84,535.86Zm-2.47,30.92H243.6V733.09H195.37Z"/><path id="Pfad_17963" data-name="Pfad 17963" d="M444.52,566.78V705.27q0,45.74-23.8,68t-69.55,22.26a174.44,174.44,0,0,1-45.75-5.87,100.2,100.2,0,0,1-35.86-17L288.72,738a79.19,79.19,0,0,0,26.59,13.75,105.67,105.67,0,0,0,32.14,5.1q25.05,0,36.95-11.28t11.9-34.16v-7.12q-18.85,20.73-52.55,20.72a88.39,88.39,0,0,1-41.89-10,76.53,76.53,0,0,1-30.14-28.29,85,85,0,0,1,0-84.08,76.66,76.66,0,0,1,30.14-28.29,88.39,88.39,0,0,1,41.89-10q36.17,0,55,23.8v-21.4ZM384.71,674.2a41.84,41.84,0,0,0,0-59.05,44.47,44.47,0,0,0-31.38-11.28,45,45,0,0,0-31.54,11.28,41.43,41.43,0,0,0-.45,58.6l.45.45a45,45,0,0,0,31.54,11.28A44.42,44.42,0,0,0,384.71,674.2Z"/><path id="Pfad_17964" data-name="Pfad 17964" d="M624.91,582.85q19,18.55,19,55v95.23H595.69v-87.8q0-19.78-8.66-29.53A31.75,31.75,0,0,0,562,606,38.39,38.39,0,0,0,533,617.3q-10.83,11.28-10.82,33.54v82.24H474V566.78H520v19.48A63.94,63.94,0,0,1,543.78,570,83.09,83.09,0,0,1,575,564.31Q605.89,564.31,624.91,582.85Z"/><path id="Pfad_17965" data-name="Pfad 17965" d="M839.6,566.78V733.09H793.84V713.31A63.93,63.93,0,0,1,771,729.84a71.89,71.89,0,0,1-28.75,5.72q-32.78,0-51.94-18.86t-19.16-56v-94h48.22v86.87q0,40.18,33.68,40.19a36.26,36.26,0,0,0,27.83-11.26q10.5-11.29,10.51-33.56V566.79Z"/><path id="Pfad_17966" data-name="Pfad 17966" d="M1131.57,582.69q18.39,18.4,18.4,55.19v95.23h-48.23v-87.8q0-19.78-8.19-29.53a28.79,28.79,0,0,0-23.34-9.73,34.44,34.44,0,0,0-26.89,11q-9.9,11-9.89,32.61V733.1H985.2V645.31q0-39.25-31.53-39.26a34.08,34.08,0,0,0-26.59,11q-9.89,11-9.89,32.61V733.1H869V566.78h46V586a61,61,0,0,1,22.73-16.09,76.54,76.54,0,0,1,29.52-5.55,71.54,71.54,0,0,1,31.84,7A56.44,56.44,0,0,1,1022,591.52a68.44,68.44,0,0,1,25.81-20.09,81.52,81.52,0,0,1,34.16-7.11Q1113.19,564.3,1131.57,582.69Z"/></g></g></g></g><g id="Ebene_2-3" data-name="Ebene 2"><g id="Ebene_1-2-3" data-name="Ebene 1-2"><path d="M558.93,0C450.31,0,362.26,88.05,362.26,196.67s88.05,196.67,196.67,196.67,196.67-88,196.67-196.67S667.55,0,558.93,0Z"/></g></g><path class="cls-1" d="M693.6,143.47a28.72,28.72,0,0,1,0,40.56l-41,41-15.49-15.49,41-41a6.77,6.77,0,0,0,0-9.58h0l-14-14L652.6,156.47,637.08,141l27-27Z"/><rect class="cls-1" x="618.4" y="128.81" width="21.9" height="63.49" transform="translate(70.7 491.87) rotate(-44.98)"/><path class="cls-1" d="M571.58,62a28.71,28.71,0,0,1,40.55,0l29.52,29.52-32.92,32.92L579.26,154a28.71,28.71,0,0,1-40.55,0l-8.12-8.12,15.49-15.49,8.11,8.12a6.78,6.78,0,0,0,9.58,0l47-47-14-14a6.78,6.78,0,0,0-9.58,0l-6.72,6.72L564.85,68.72Z"/><polygon class="cls-1" points="508.11 156.44 492.63 141 537.52 96.1 553.01 111.59 508.11 156.44"/><path class="cls-1" d="M505.73,62a28.72,28.72,0,0,1,40.53,0l41,41-15.49,15.48-41-41a6.78,6.78,0,0,0-9.58,0l-14,14L518.7,103l-15.44,15.52-27-27Z"/><path class="cls-1" d="M424.26,143.47,453.78,114l62.48,62.39a28.72,28.72,0,0,1,0,40.61l-8.11,8.11-15.48-15.49,8.11-8.11a6.78,6.78,0,0,0,0-9.58l-47-47-14,14a6.78,6.78,0,0,0,0,9.58l6.72,6.72L431,190.75,424.26,184A28.72,28.72,0,0,1,424.26,143.47Z"/><polygon class="cls-1" points="518.7 247.47 503.26 263 458.36 218.1 473.85 202.61 518.7 247.47"/><path class="cls-1" d="M424.26,249.87a28.71,28.71,0,0,1,0-40.55l41-41,15.48,15.49-41,41a6.78,6.78,0,0,0,0,9.58l14,14,11.52-11.49,15.48,15.49-27,27Z"/><path class="cls-1" d="M546.26,331.34a28.72,28.72,0,0,1-40.56,0l-29.44-29.52,62.45-62.44a28.71,28.71,0,0,1,40.55,0l8.11,8.11L571.83,263l-8.11-8.11a6.78,6.78,0,0,0-9.58,0l-46.95,46.95,14,14a6.78,6.78,0,0,0,9.58,0l6.72-6.73L553,324.6Z"/><polygon class="cls-1" points="609.72 236.9 625.26 252.39 580.36 297.29 564.85 281.8 609.72 236.9"/><path class="cls-1" d="M612.1,331.34a28.71,28.71,0,0,1-40.55,0l-41-41L546,274.85l41,41a6.78,6.78,0,0,0,9.58,0l14-14-11.46-11.54,15.49-15.49,27,27Z"/><path class="cls-1" d="M693.57,249.87l-29.52,29.52L601.64,217a28.71,28.71,0,0,1,0-40.55l8.11-8.11,15.51,15.43-8.11,8.11a6.78,6.78,0,0,0,0,9.58l47,47,14-14a6.77,6.77,0,0,0,0-9.58h0l-6.72-6.72,15.49-15.49,6.72,6.73a28.7,28.7,0,0,1,0,40.47Z"/></g></g></svg>