<svg xmlns="http://www.w3.org/2000/svg" viewBox="0 0 1149.97 305.78"><defs><style>.cls-1{fill:#fff;}</style></defs><g id="Ebene_2" data-name="Ebene 2"><g id="Ebene_1-2" data-name="Ebene 1"><g id="Amazing_Business_Ideas" data-name="Amazing Business Ideas"><g id="Gruppe_9136" data-name="Gruppe 9136"><path id="Pfad_17961" data-name="Pfad 17961" class="cls-1" d="M38.49,240.08A116.37,116.37,0,0,1,0,222l17-37.71a115.27,115.27,0,0,0,33.08,16.39,124.7,124.7,0,0,0,38.32,6.19q21.33,0,31.53-6.34a19.14,19.14,0,0,0,10.2-16.84,16.09,16.09,0,0,0-6-12.83,45.41,45.41,0,0,0-15.46-8.19q-9.42-3.1-25.5-6.8a353.74,353.74,0,0,1-40.5-11.75,65.83,65.83,0,0,1-27-18.86A50.87,50.87,0,0,1,4.32,90.63a60.15,60.15,0,0,1,10.2-34.15A68.57,68.57,0,0,1,45.28,32.2a125.48,125.48,0,0,1,50.23-9,166.58,166.58,0,0,1,40.5,5A119.82,119.82,0,0,1,170.63,42.4l-15.46,38a120.61,120.61,0,0,0-60-17q-21,0-31.07,6.81a20.73,20.73,0,0,0-10,17.93A17.53,17.53,0,0,0,65.68,104.7a181.61,181.61,0,0,0,35.4,10.66,355.62,355.62,0,0,1,40.49,11.75,67.18,67.18,0,0,1,27.06,18.55q11.28,12.68,11.28,34.31a59.19,59.19,0,0,1-10.35,33.86,69.63,69.63,0,0,1-31.08,24.25,126.59,126.59,0,0,1-50.38,9A177.48,177.48,0,0,1,38.49,240.08Z"/><path id="Pfad_17962" data-name="Pfad 17962" class="cls-1" d="M197.84,46.1a25.07,25.07,0,0,1-8.34-19.16,25.08,25.08,0,0,1,8.34-19.17A30.62,30.62,0,0,1,219.48,0a31.36,31.36,0,0,1,21.64,7.42A23.8,23.8,0,0,1,249.47,26a26.22,26.22,0,0,1-8.35,19.93,30.24,30.24,0,0,1-21.64,7.89A30.57,30.57,0,0,1,197.84,46.1ZM195.37,77H243.6V243.33H195.37Z"/><path id="Pfad_17963" data-name="Pfad 17963" class="cls-1" d="M444.52,77V215.5q0,45.75-23.8,68t-69.55,22.26a174.39,174.39,0,0,1-45.75-5.87,100,100,0,0,1-35.86-17l19.16-34.62A78.94,78.94,0,0,0,315.31,262a105.63,105.63,0,0,0,32.14,5.1q25.05,0,36.95-11.29t11.9-34.15v-7.12q-18.85,20.73-52.55,20.72a88.26,88.26,0,0,1-41.89-10.05A76.5,76.5,0,0,1,271.72,197a79.06,79.06,0,0,1-11.13-42,79.06,79.06,0,0,1,11.13-42A76.59,76.59,0,0,1,301.86,84.6a88.13,88.13,0,0,1,41.89-10q36.17,0,55,23.8V77ZM384.71,184.44a38.3,38.3,0,0,0,12.2-29.52,38.32,38.32,0,0,0-12.2-29.53,44.42,44.42,0,0,0-31.38-11.28,45,45,0,0,0-31.54,11.28,38.14,38.14,0,0,0-12.36,29.53,38.12,38.12,0,0,0,12.36,29.52,45,45,0,0,0,31.54,11.28,44.38,44.38,0,0,0,31.38-11.29Z"/><path id="Pfad_17964" data-name="Pfad 17964" class="cls-1" d="M624.91,93.09q19,18.55,19,55v95.22H595.69V155.55q0-19.78-8.66-29.53a31.7,31.7,0,0,0-25-9.73,38.4,38.4,0,0,0-29.06,11.28q-10.83,11.28-10.82,33.54v82.23h-48.2V77H520V96.49a64,64,0,0,1,23.81-16.23A82.71,82.71,0,0,1,575,74.55Q605.89,74.54,624.91,93.09Z"/><path id="Pfad_17965" data-name="Pfad 17965" class="cls-1" d="M839.6,77V243.33H793.84V223.54A63.85,63.85,0,0,1,771,240.08a72.07,72.07,0,0,1-28.75,5.72q-32.78,0-51.94-18.86T671.12,171V77h48.22v86.87q0,40.19,33.68,40.18a36.22,36.22,0,0,0,27.83-11.26q10.5-11.28,10.51-33.55V77Z"/><path id="Pfad_17966" data-name="Pfad 17966" class="cls-1" d="M1131.57,92.93q18.39,18.39,18.4,55.19v95.22h-48.23V155.55q0-19.78-8.19-29.53a28.78,28.78,0,0,0-23.34-9.73,34.41,34.41,0,0,0-26.89,11q-9.9,11-9.89,32.61v83.47H985.2V155.55q0-39.26-31.53-39.26a34,34,0,0,0-26.59,11q-9.89,11-9.89,32.61v83.47H869V77H915V96.18A61,61,0,0,1,937.76,80.1a76.54,76.54,0,0,1,29.52-5.55,71.54,71.54,0,0,1,31.84,7A56.49,56.49,0,0,1,1022,101.76a68.54,68.54,0,0,1,25.81-20.1,81.7,81.7,0,0,1,34.16-7.1Q1113.19,74.54,1131.57,92.93Z"/></g></g></g></g></svg>