<svg xmlns="http://www.w3.org/2000/svg" viewBox="0 0 332.72 100.92"><defs><style>.cls-1{fill:#fff;}.cls-2{fill:#f44758;}</style></defs><g id="Ebene_2" data-name="Ebene 2"><g id="Ebene_1-2" data-name="Ebene 1"><g id="Amazing_Business_Ideas" data-name="Amazing Business Ideas"><g id="Gruppe_9136" data-name="Gruppe 9136"><path id="Pfad_17961" data-name="Pfad 17961" class="cls-1" d="M9.71,84.35A29.24,29.24,0,0,1,0,79.78l4.29-9.51a29,29,0,0,0,8.34,4.13A31.53,31.53,0,0,0,22.3,76c3.59,0,6.24-.54,8-1.6a4.84,4.84,0,0,0,2.57-4.25,4.07,4.07,0,0,0-1.52-3.24,11.54,11.54,0,0,0-3.9-2.07c-1.58-.52-3.73-1.09-6.43-1.71a90.49,90.49,0,0,1-10.22-3,16.54,16.54,0,0,1-6.82-4.75,12.83,12.83,0,0,1-2.85-8.74A15.21,15.21,0,0,1,3.66,38a17.35,17.35,0,0,1,7.76-6.12A31.79,31.79,0,0,1,24.1,29.64a41.37,41.37,0,0,1,10.21,1.25,30.34,30.34,0,0,1,8.74,3.58l-3.9,9.6A30.45,30.45,0,0,0,24,39.78q-5.31,0-7.84,1.72A5.22,5.22,0,0,0,13.65,46a4.4,4.4,0,0,0,2.92,4.17,45.71,45.71,0,0,0,8.93,2.69,91.1,91.1,0,0,1,10.22,3,16.87,16.87,0,0,1,6.82,4.68q2.85,3.19,2.85,8.65a14.93,14.93,0,0,1-2.61,8.54,17.5,17.5,0,0,1-7.84,6.12,31.8,31.8,0,0,1-12.71,2.27A44.92,44.92,0,0,1,9.71,84.35Z"/><path id="Pfad_17962" data-name="Pfad 17962" class="cls-1" d="M49.91,35.41a6.62,6.62,0,0,1,0-9.67,7.74,7.74,0,0,1,5.47-2,7.9,7.9,0,0,1,5.45,1.88,6,6,0,0,1,2.11,4.68,6.61,6.61,0,0,1-2.11,5,7.59,7.59,0,0,1-5.45,2A7.72,7.72,0,0,1,49.91,35.41Zm-.62,7.8H61.46v42H49.29Z"/><path id="Pfad_17963" data-name="Pfad 17963" class="cls-1" d="M112.15,43.21V78.15q0,11.53-6,17.16T88.6,100.92a44,44,0,0,1-11.54-1.48,25.17,25.17,0,0,1-9-4.29l4.83-8.73a20.05,20.05,0,0,0,6.71,3.47,26.91,26.91,0,0,0,8.11,1.29q6.32,0,9.32-2.85c2-1.9,3-4.77,3-8.62v-1.8q-4.76,5.24-13.25,5.23a22.33,22.33,0,0,1-10.57-2.53,19.43,19.43,0,0,1-7.61-7.14,19.88,19.88,0,0,1-2.8-10.61,20,20,0,0,1,2.8-10.6,19.43,19.43,0,0,1,7.61-7.14,22.33,22.33,0,0,1,10.57-2.53q9.12,0,13.88,6V43.21ZM97.06,70.31a9.68,9.68,0,0,0,3.08-7.45,9.68,9.68,0,0,0-3.08-7.45,11.19,11.19,0,0,0-7.92-2.84,11.31,11.31,0,0,0-8,2.84,9.58,9.58,0,0,0-3.12,7.45,9.57,9.57,0,0,0,3.12,7.45,12.47,12.47,0,0,0,15.87,0Z"/><path id="Pfad_17964" data-name="Pfad 17964" class="cls-1" d="M157.66,47.26q4.8,4.68,4.8,13.89v24H150.29V63q0-5-2.18-7.45a8.06,8.06,0,0,0-6.32-2.46A9.69,9.69,0,0,0,134.46,56q-2.75,2.85-2.73,8.46V85.17H119.57v-42h11.62v4.91a16.17,16.17,0,0,1,6-4.09,20.85,20.85,0,0,1,7.88-1.45Q152.87,42.58,157.66,47.26Z"/><path id="Pfad_17965" data-name="Pfad 17965" class="cls-1" d="M211.83,43.21v42H200.28v-5a16.17,16.17,0,0,1-5.77,4.17,18.22,18.22,0,0,1-7.25,1.44q-8.26,0-13.1-4.76t-4.84-14.11V43.21h12.17V65.12q0,10.14,8.49,10.14a9.11,9.11,0,0,0,7-2.84q2.66-2.85,2.66-8.47V43.21Z"/><path id="Pfad_17966" data-name="Pfad 17966" class="cls-1" d="M285.49,47.22q4.63,4.65,4.64,13.93v24H278V63q0-5-2.07-7.45A7.29,7.29,0,0,0,270,53.11a8.68,8.68,0,0,0-6.78,2.77q-2.5,2.77-2.5,8.23V85.17H248.56V63q0-9.9-7.95-9.91a8.6,8.6,0,0,0-6.71,2.77c-1.66,1.85-2.5,4.59-2.5,8.23V85.17H219.24v-42h11.62V48A15.51,15.51,0,0,1,236.59,44a19.41,19.41,0,0,1,7.45-1.4,18.09,18.09,0,0,1,8,1.76,14.27,14.27,0,0,1,5.78,5.11,17.21,17.21,0,0,1,6.51-5.07A20.63,20.63,0,0,1,273,42.59Q280.86,42.58,285.49,47.22Z"/></g></g><rect class="cls-2" x="290.13" width="42.59" height="42.59" rx="4.06"/><path d="M308.19,26.29c.74,1.33,1.42,2.44,3.05,2.44s2.54-.61,2.54-3V9.62h4.75v16.2c0,4.91-2.88,7.15-7.09,7.15a7.37,7.37,0,0,1-7.12-4.34Z"/></g></g></svg>