<svg xmlns="http://www.w3.org/2000/svg" viewBox="0 0 332.72 100.92"><defs><style>.cls-1{fill:#4898ef;}</style></defs><g id="Ebene_2" data-name="Ebene 2"><g id="Ebene_1-2" data-name="Ebene 1"><rect class="cls-1" x="290.13" width="42.59" height="42.59" rx="4.06"/><path d="M308.37,30.1c.62,1.11,1.19,2,2.54,2s2.12-.51,2.12-2.49V16.21h4v13.5c0,4.09-2.4,5.95-5.9,5.95a6.14,6.14,0,0,1-5.93-3.61Z"/><path d="M298.52,14a3.15,3.15,0,0,1-1.12-.52l.5-1.09a3.14,3.14,0,0,0,1,.48,3.57,3.57,0,0,0,1.11.17,1.8,1.8,0,0,0,.91-.18.55.55,0,0,0,.29-.48A.5.5,0,0,0,301,12a1.58,1.58,0,0,0-.45-.23c-.18-.06-.42-.13-.73-.2a8.19,8.19,0,0,1-1.17-.34,1.78,1.78,0,0,1-.78-.54,1.47,1.47,0,0,1-.33-1,1.79,1.79,0,0,1,.29-1,2.05,2.05,0,0,1,.89-.7,3.69,3.69,0,0,1,1.45-.26,5.06,5.06,0,0,1,1.17.14,3.8,3.8,0,0,1,1,.41l-.44,1.1a3.59,3.59,0,0,0-1.74-.49,1.6,1.6,0,0,0-.89.2.58.58,0,0,0-.29.52.5.5,0,0,0,.33.47,4.85,4.85,0,0,0,1,.31,9.75,9.75,0,0,1,1.17.34,1.78,1.78,0,0,1,.78.54,1.41,1.41,0,0,1,.33,1,1.74,1.74,0,0,1-.3,1,2.1,2.1,0,0,1-.9.7,3.65,3.65,0,0,1-1.45.26A4.85,4.85,0,0,1,298.52,14Z"/><path d="M311.08,9.76a2.2,2.2,0,0,1,.53,1.6v2.75h-1.39V11.57a1.29,1.29,0,0,0-.24-.85.82.82,0,0,0-.67-.28,1,1,0,0,0-.78.32,1.36,1.36,0,0,0-.29.94v2.41h-1.39V11.57c0-.75-.3-1.13-.91-1.13a1,1,0,0,0-.77.32,1.35,1.35,0,0,0-.28.94v2.41h-1.4V9.3h1.33v.56a1.85,1.85,0,0,1,.66-.47,2.34,2.34,0,0,1,.85-.16,2.11,2.11,0,0,1,.92.2,1.57,1.57,0,0,1,.66.59,2,2,0,0,1,.75-.58,2.3,2.3,0,0,1,1-.21A2,2,0,0,1,311.08,9.76Z"/><path d="M316.51,9.76a2,2,0,0,1,.6,1.61v2.74H315.8v-.6a1.54,1.54,0,0,1-1.46.67,2.19,2.19,0,0,1-1-.19,1.39,1.39,0,0,1-.62-.52,1.37,1.37,0,0,1-.21-.75,1.24,1.24,0,0,1,.5-1.05,2.56,2.56,0,0,1,1.56-.38h1.11a.89.89,0,0,0-.28-.7,1.19,1.19,0,0,0-.83-.25,2.46,2.46,0,0,0-.76.12,2.1,2.1,0,0,0-.63.33l-.5-1a3.18,3.18,0,0,1,.95-.42,3.86,3.86,0,0,1,1.13-.16A2.52,2.52,0,0,1,316.51,9.76Zm-1.19,3.32a.93.93,0,0,0,.4-.49V12.1h-1c-.57,0-.86.19-.86.56a.52.52,0,0,0,.21.43,1,1,0,0,0,.58.15A1.18,1.18,0,0,0,315.32,13.08Z"/><path d="M320.37,9.41a2.48,2.48,0,0,1,1-.18v1.29l-.31,0a1.25,1.25,0,0,0-.94.34,1.32,1.32,0,0,0-.34,1v2.27h-1.39V9.3h1.33v.64A1.54,1.54,0,0,1,320.37,9.41Z"/><path d="M325.45,13.88a1.49,1.49,0,0,1-.51.22,2.59,2.59,0,0,1-.63.08,1.86,1.86,0,0,1-1.32-.44,1.64,1.64,0,0,1-.47-1.28v-2h-.74V9.41h.74V8.24h1.39V9.41h1.2v1.07h-1.2v2a.64.64,0,0,0,.16.47.57.57,0,0,0,.44.16.87.87,0,0,0,.56-.18Z"/><g id="Amazing_Business_Ideas" data-name="Amazing Business Ideas"><g id="Gruppe_9136" data-name="Gruppe 9136"><path id="Pfad_17961" data-name="Pfad 17961" d="M9.71,84.35A29.24,29.24,0,0,1,0,79.78l4.29-9.51a29,29,0,0,0,8.34,4.13A31.53,31.53,0,0,0,22.3,76c3.59,0,6.24-.54,8-1.6a4.84,4.84,0,0,0,2.57-4.25,4.07,4.07,0,0,0-1.52-3.24,11.54,11.54,0,0,0-3.9-2.07c-1.58-.52-3.73-1.09-6.43-1.71a90.49,90.49,0,0,1-10.22-3,16.54,16.54,0,0,1-6.82-4.75,12.83,12.83,0,0,1-2.85-8.74A15.21,15.21,0,0,1,3.66,38a17.35,17.35,0,0,1,7.76-6.12A31.79,31.79,0,0,1,24.1,29.64a41.37,41.37,0,0,1,10.21,1.25,30.34,30.34,0,0,1,8.74,3.58l-3.9,9.6A30.45,30.45,0,0,0,24,39.78q-5.31,0-7.84,1.72A5.22,5.22,0,0,0,13.65,46a4.4,4.4,0,0,0,2.92,4.17,45.71,45.71,0,0,0,8.93,2.69,91.1,91.1,0,0,1,10.22,3,16.87,16.87,0,0,1,6.82,4.68q2.85,3.19,2.85,8.65a14.93,14.93,0,0,1-2.61,8.54,17.5,17.5,0,0,1-7.84,6.12,31.8,31.8,0,0,1-12.71,2.27A44.92,44.92,0,0,1,9.71,84.35Z"/><path id="Pfad_17962" data-name="Pfad 17962" d="M49.91,35.41a6.62,6.62,0,0,1,0-9.67,7.74,7.74,0,0,1,5.47-2,7.9,7.9,0,0,1,5.45,1.88,6,6,0,0,1,2.11,4.68,6.61,6.61,0,0,1-2.11,5,7.59,7.59,0,0,1-5.45,2A7.72,7.72,0,0,1,49.91,35.41Zm-.62,7.8H61.46v42H49.29Z"/><path id="Pfad_17963" data-name="Pfad 17963" d="M112.15,43.21V78.15q0,11.53-6,17.16T88.6,100.92a44,44,0,0,1-11.54-1.48,25.17,25.17,0,0,1-9-4.29l4.83-8.73a20.05,20.05,0,0,0,6.71,3.47,26.91,26.91,0,0,0,8.11,1.29q6.32,0,9.32-2.85c2-1.9,3-4.77,3-8.62v-1.8q-4.76,5.24-13.25,5.23a22.33,22.33,0,0,1-10.57-2.53,19.43,19.43,0,0,1-7.61-7.14,19.88,19.88,0,0,1-2.8-10.61,20,20,0,0,1,2.8-10.6,19.43,19.43,0,0,1,7.61-7.14,22.33,22.33,0,0,1,10.57-2.53q9.12,0,13.88,6V43.21ZM97.06,70.31a9.68,9.68,0,0,0,3.08-7.45,9.68,9.68,0,0,0-3.08-7.45,11.19,11.19,0,0,0-7.92-2.84,11.31,11.31,0,0,0-8,2.84,9.58,9.58,0,0,0-3.12,7.45,9.57,9.57,0,0,0,3.12,7.45,12.47,12.47,0,0,0,15.87,0Z"/><path id="Pfad_17964" data-name="Pfad 17964" d="M157.66,47.26q4.8,4.68,4.8,13.89v24H150.29V63q0-5-2.18-7.45a8.06,8.06,0,0,0-6.32-2.46A9.69,9.69,0,0,0,134.46,56q-2.75,2.85-2.73,8.46V85.17H119.57v-42h11.62v4.91a16.17,16.17,0,0,1,6-4.09,20.85,20.85,0,0,1,7.88-1.45Q152.87,42.58,157.66,47.26Z"/><path id="Pfad_17965" data-name="Pfad 17965" d="M211.83,43.21v42H200.28v-5a16.17,16.17,0,0,1-5.77,4.17,18.22,18.22,0,0,1-7.25,1.44q-8.26,0-13.1-4.76t-4.84-14.11V43.21h12.17V65.12q0,10.14,8.49,10.14a9.11,9.11,0,0,0,7-2.84q2.66-2.85,2.66-8.47V43.21Z"/><path id="Pfad_17966" data-name="Pfad 17966" d="M285.49,47.22q4.63,4.65,4.64,13.93v24H278V63q0-5-2.07-7.45A7.29,7.29,0,0,0,270,53.11a8.68,8.68,0,0,0-6.78,2.77q-2.5,2.77-2.5,8.23V85.17H248.56V63q0-9.9-7.95-9.91a8.6,8.6,0,0,0-6.71,2.77c-1.66,1.85-2.5,4.59-2.5,8.23V85.17H219.24v-42h11.62V48A15.51,15.51,0,0,1,236.59,44a19.41,19.41,0,0,1,7.45-1.4,18.09,18.09,0,0,1,8,1.76,14.27,14.27,0,0,1,5.78,5.11,17.21,17.21,0,0,1,6.51-5.07A20.63,20.63,0,0,1,273,42.59Q280.86,42.58,285.49,47.22Z"/></g></g></g></g></svg>