<svg xmlns="http://www.w3.org/2000/svg" xmlns:xlink="http://www.w3.org/1999/xlink" viewBox="0 0 2259.13 1847.87"><defs><style>.cls-1{fill:none;}.cls-2{fill:url(#Unbenannter_Verlauf_11);}.cls-3{clip-path:url(#clip-path);}.cls-4{opacity:0.2;}.cls-5{fill:#fff;}</style><radialGradient id="Unbenannter_Verlauf_11" cx="1129.56" cy="923.93" r="778.85" gradientUnits="userSpaceOnUse"><stop offset="0" stop-color="#09f"/><stop offset="1" stop-color="#06f"/></radialGradient><clipPath id="clip-path" transform="translate(169.56 383.93)"><rect class="cls-1" width="1920" height="1080"/></clipPath></defs><g id="Ebene_2" data-name="Ebene 2"><g id="Ebene_1-2" data-name="Ebene 1"><rect class="cls-2" x="169.56" y="383.93" width="1920" height="1080"/><g class="cls-3"><g id="Bildlaufgruppe_3" data-name="Bildlaufgruppe 3" class="cls-4"><g id="Gruppe_15003" data-name="Gruppe 15003"><g id="Gruppe_14995-3" data-name="Gruppe 14995-3"><rect id="Rechteck_1881-3" data-name="Rechteck 1881-3" class="cls-5" x="1487.23" y="1091.71" width="58.79" height="170.42" transform="translate(-218.44 1801.06) rotate(-45)"/><path id="Pfad_30188-3" data-name="Pfad 30188-3" class="cls-5" d="M1566.76,797.8l37.66-37.66a18.2,18.2,0,0,1,25.71,0l110.13,110.13,41.56-41.57L1671.69,718.57a77,77,0,0,0-108.83,0l-79.23,79.24,72.46,72.46,41.57-41.57Z" transform="translate(169.56 383.93)"/><path id="Pfad_30189-3" data-name="Pfad 30189-3" class="cls-5" d="M1423.43,1218.88l-37.65-37.67a18.19,18.19,0,0,1,0-25.71l110.12-110.13-41.56-41.56L1344.2,1113.94a77.05,77.05,0,0,0,0,108.84l79.23,79.22,72.46-72.46L1454.33,1188Z" transform="translate(169.56 383.93)"/><path id="Pfad_30190-3" data-name="Pfad 30190-3" class="cls-5" d="M1781.13,760.14a18.19,18.19,0,0,1,25.71,0l37.65,37.66-126,126a18.2,18.2,0,0,1-25.71,0L1671,902.05l-41.56,41.56,21.78,21.78a77,77,0,0,0,108.82,0l79.24-79.22,88.35-88.36-79.23-79.22a77,77,0,0,0-108.83,0l-18,18,41.56,41.56Z" transform="translate(169.56 383.93)"/><rect id="Rechteck_1882-3" data-name="Rechteck 1882-3" class="cls-5" x="1523.5" y="861.61" width="170.41" height="58.78" transform="translate(10.71 1782.43) rotate(-45)"/><path id="Pfad_30191-3" data-name="Pfad 30191-3" class="cls-5" d="M1987.82,941.13l37.67,37.66a18.2,18.2,0,0,1,0,25.71l-110.12,110.13,41.56,41.55,110.13-110.12a77,77,0,0,0,0-108.83L1987.83,858l-72.46,72.46L1956.94,972Z" transform="translate(169.56 383.93)"/><rect id="Rechteck_1883-3" data-name="Rechteck 1883-3" class="cls-5" x="1865.24" y="897.88" width="58.79" height="170.41" transform="translate(29.35 2011.58) rotate(-45)"/><path id="Pfad_30192-3" data-name="Pfad 30192-3" class="cls-5" d="M2025.49,1155.5a18.22,18.22,0,0,1,0,25.72l-37.66,37.65-126-126a18.2,18.2,0,0,1,0-25.71l21.78-21.77L1842,1003.82l-21.77,21.77a77,77,0,0,0,0,108.83L1987.83,1302l79.23-79.24a77,77,0,0,0,0-108.83L2049,1095.88l-41.56,41.58Z" transform="translate(169.56 383.93)"/><path id="Pfad_30193-3" data-name="Pfad 30193-3" class="cls-5" d="M1385.77,1004.5a18.2,18.2,0,0,1,0-25.71l37.66-37.66,126,126a18.2,18.2,0,0,1,0,25.71l-21.77,21.77,41.57,41.56,21.77-21.77a77,77,0,0,0,0-108.84L1423.44,858l-79.24,79.23a77,77,0,0,0,0,108.83l18,18.06,41.56-41.58Z" transform="translate(169.56 383.93)"/><rect id="Rechteck_1884-3" data-name="Rechteck 1884-3" class="cls-5" x="1717.35" y="1239.61" width="170.41" height="58.78" transform="translate(-199.8 2030.21) rotate(-45)"/><path id="Pfad_30194-3" data-name="Pfad 30194-3" class="cls-5" d="M1844.5,1362.2l-37.65,37.67a18.21,18.21,0,0,1-25.72,0L1671,1289.73l-41.57,41.58,110.13,110.12a77,77,0,0,0,108.84,0l79.23-79.23-72.46-72.47-41.57,41.57Z" transform="translate(169.56 383.93)"/><path id="Pfad_30195-3" data-name="Pfad 30195-3" class="cls-5" d="M1630.13,1399.86a18.2,18.2,0,0,1-25.71,0l-37.66-37.66,126-126a18.21,18.21,0,0,1,25.72,0l21.77,21.77,41.56-41.57-21.77-21.77a77,77,0,0,0-108.83,0L1483.63,1362.2l79.23,79.23a77,77,0,0,0,108.83,0l18-18-41.57-41.56Z" transform="translate(169.56 383.93)"/></g></g></g><g id="Bildlaufgruppe_3-2" data-name="Bildlaufgruppe 3" class="cls-4"><g id="Gruppe_15003-2" data-name="Gruppe 15003"><g id="Gruppe_14995-3-2" data-name="Gruppe 14995-3"><rect id="Rechteck_1881-3-2" data-name="Rechteck 1881-3" class="cls-5" x="-4.03" y="11.71" width="58.79" height="170.42" transform="translate(108.46 430.26) rotate(-45)"/><path id="Pfad_30188-3-2" data-name="Pfad 30188-3" class="cls-5" d="M75.5-282.2l37.66-37.66a18.2,18.2,0,0,1,25.71,0L249-209.73l41.56-41.57L180.43-361.43a77,77,0,0,0-108.83,0L-7.63-282.19l72.46,72.46L106.4-251.3Z" transform="translate(169.56 383.93)"/><path id="Pfad_30189-3-2" data-name="Pfad 30189-3" class="cls-5" d="M-67.83,138.88l-37.65-37.67a18.19,18.19,0,0,1,0-25.71L4.63-34.63-36.93-76.19-147.06,33.94a77.05,77.05,0,0,0,0,108.84L-67.83,222,4.63,149.54-36.93,108Z" transform="translate(169.56 383.93)"/><path id="Pfad_30190-3-2" data-name="Pfad 30190-3" class="cls-5" d="M289.87-319.86a18.19,18.19,0,0,1,25.71,0l37.66,37.66-126,126a18.2,18.2,0,0,1-25.71,0l-21.78-21.76-41.56,41.56L160-114.61a77,77,0,0,0,108.82,0L348-193.84l88.35-88.36-79.23-79.22a77,77,0,0,0-108.83,0l-18.05,18.05,41.56,41.56Z" transform="translate(169.56 383.93)"/><rect id="Rechteck_1882-3-2" data-name="Rechteck 1882-3" class="cls-5" x="32.24" y="-218.39" width="170.41" height="58.78" transform="translate(337.61 411.62) rotate(-45)"/><path id="Pfad_30191-3-2" data-name="Pfad 30191-3" class="cls-5" d="M496.56-138.87l37.67,37.66a18.2,18.2,0,0,1,0,25.71L424.11,34.63l41.56,41.55L575.8-33.94a77,77,0,0,0,0-108.83L496.57-222l-72.46,72.46L465.68-108Z" transform="translate(169.56 383.93)"/><rect id="Rechteck_1883-3-2" data-name="Rechteck 1883-3" class="cls-5" x="373.98" y="-182.12" width="58.79" height="170.41" transform="translate(356.24 640.78) rotate(-45)"/><path id="Pfad_30192-3-2" data-name="Pfad 30192-3" class="cls-5" d="M534.23,75.5a18.22,18.22,0,0,1,0,25.72l-37.66,37.65-126-126a18.2,18.2,0,0,1,0-25.71l21.78-21.77L350.76-76.18,329-54.41a77,77,0,0,0,0,108.83L496.57,222l79.23-79.24a77,77,0,0,0,0-108.83L557.74,15.88,516.18,57.46Z" transform="translate(169.56 383.93)"/><path id="Pfad_30193-3-2" data-name="Pfad 30193-3" class="cls-5" d="M-105.49-75.5a18.2,18.2,0,0,1,0-25.71l37.66-37.66,126,126a18.2,18.2,0,0,1,0,25.71L36.41,34.63,78,76.19,99.75,54.42a77,77,0,0,0,0-108.84L-67.82-222l-79.24,79.23a77,77,0,0,0,0,108.83L-129-15.88l41.56-41.58Z" transform="translate(169.56 383.93)"/><rect id="Rechteck_1884-3-2" data-name="Rechteck 1884-3" class="cls-5" x="226.09" y="159.61" width="170.41" height="58.78" transform="translate(127.09 659.41) rotate(-45)"/><path id="Pfad_30194-3-2" data-name="Pfad 30194-3" class="cls-5" d="M353.24,282.2l-37.65,37.67a18.21,18.21,0,0,1-25.72,0L179.74,209.73l-41.57,41.58L248.3,361.43a77,77,0,0,0,108.84,0l79.23-79.23-72.46-72.47L322.34,251.3Z" transform="translate(169.56 383.93)"/><path id="Pfad_30195-3-2" data-name="Pfad 30195-3" class="cls-5" d="M138.87,319.86a18.2,18.2,0,0,1-25.71,0L75.51,282.2l126-126a18.21,18.21,0,0,1,25.72,0L249,178l41.56-41.57-21.77-21.77a77,77,0,0,0-108.83,0L-7.63,282.2,71.6,361.43a77,77,0,0,0,108.83,0l18-18.05-41.57-41.56Z" transform="translate(169.56 383.93)"/></g></g></g></g><g id="Ebene_2-2" data-name="Ebene 2"><g id="Ebene_1-2-2" data-name="Ebene 1-2"><g id="Amazing_Business_Ideas-7" data-name="Amazing Business Ideas-7"><g id="Gruppe_9136-7" data-name="Gruppe 9136-7"><path id="Pfad_17961-7" data-name="Pfad 17961-7" class="cls-5" d="M671.19,721.58a65.47,65.47,0,0,1-21.62-10.16l9.55-21.22a64.65,64.65,0,0,0,18.58,9.21,69.71,69.71,0,0,0,21.53,3.48q12,0,17.71-3.56a10.74,10.74,0,0,0,5.73-9.46,9,9,0,0,0-3.37-7.21,25.65,25.65,0,0,0-8.68-4.6q-5.29-1.74-14.33-3.82a199.24,199.24,0,0,1-22.75-6.6,37,37,0,0,1-15.21-10.58A28.62,28.62,0,0,1,652,637.61a33.84,33.84,0,0,1,5.73-19.18A38.42,38.42,0,0,1,675,604.81a70.56,70.56,0,0,1,28.21-5.06A93.83,93.83,0,0,1,726,602.56a67.33,67.33,0,0,1,19.45,8l-8.69,21.34a67.85,67.85,0,0,0-33.7-9.55q-11.81,0-17.46,3.83A11.65,11.65,0,0,0,680,636.24a9.86,9.86,0,0,0,6.51,9.29,101.52,101.52,0,0,0,19.89,6,197.86,197.86,0,0,1,22.75,6.61,37.68,37.68,0,0,1,15.2,10.42q6.33,7.13,6.34,19.27a33.28,33.28,0,0,1-5.82,19,39,39,0,0,1-17.46,13.62,71,71,0,0,1-28.3,5.06A100,100,0,0,1,671.19,721.58Z" transform="translate(169.56 383.93)"/><path id="Pfad_17962-7" data-name="Pfad 17962-7" class="cls-5" d="M760.72,612.6a14.71,14.71,0,0,1-.74-20.8h0c.23-.25.48-.5.74-.74a17.22,17.22,0,0,1,12.15-4.35A17.62,17.62,0,0,1,785,590.88a13.37,13.37,0,0,1,4.69,10.42A14.75,14.75,0,0,1,785,612.51a17,17,0,0,1-12.16,4.42A17.15,17.15,0,0,1,760.72,612.6ZM759.33,630h27.09V723.4H759.33Z" transform="translate(169.56 383.93)"/><path id="Pfad_17963-7" data-name="Pfad 17963-7" class="cls-5" d="M899.3,630v77.8q0,25.69-13.37,38.21t-39.07,12.5a97.88,97.88,0,0,1-25.71-3.3A56.06,56.06,0,0,1,801,745.63l10.76-19.45a44.43,44.43,0,0,0,14.94,7.73,59.56,59.56,0,0,0,18.06,2.86q14.07,0,20.76-6.34t6.68-19.19v-4q-10.59,11.65-29.52,11.64a49.63,49.63,0,0,1-23.53-5.61,43,43,0,0,1-16.94-15.9,47.76,47.76,0,0,1,0-47.23,43,43,0,0,1,16.94-15.9,49.76,49.76,0,0,1,23.53-5.62q20.32,0,30.9,13.38V630Zm-33.6,60.35a23.5,23.5,0,0,0,0-33.18,24.94,24.94,0,0,0-17.63-6.33,25.28,25.28,0,0,0-17.72,6.33,23.29,23.29,0,0,0-.25,32.93l.25.25a25.28,25.28,0,0,0,17.72,6.33A24.94,24.94,0,0,0,865.7,690.32Z" transform="translate(169.56 383.93)"/><path id="Pfad_17964-7" data-name="Pfad 17964-7" class="cls-5" d="M1000.65,639q10.67,10.41,10.67,30.9v53.5H984.23V674.07q0-11.12-4.86-16.59a17.86,17.86,0,0,0-14-5.47A21.59,21.59,0,0,0,949,658.35q-6.07,6.33-6.07,18.84V723.4H915.84V630h25.87v10.94a35.94,35.94,0,0,1,13.36-9.13,46.53,46.53,0,0,1,17.54-3.2Q990,628.58,1000.65,639Z" transform="translate(169.56 383.93)"/><path id="Pfad_17965-7" data-name="Pfad 17965-7" class="cls-5" d="M1121.26,630V723.4h-25.71V712.29a36.06,36.06,0,0,1-12.83,9.29,40.49,40.49,0,0,1-16.15,3.21q-18.42,0-29.18-10.6t-10.77-31.46V629.92h27.09v48.81q0,22.57,18.93,22.58a20.35,20.35,0,0,0,15.63-6.33q5.89-6.35,5.91-18.85V630Z" transform="translate(169.56 383.93)"/><path id="Pfad_17966-7" data-name="Pfad 17966-7" class="cls-5" d="M1285.29,638.91q10.34,10.33,10.34,31v53.5h-27.1V674.09q0-11.12-4.6-16.59a16.15,16.15,0,0,0-13.11-5.47,19.34,19.34,0,0,0-15.11,6.18q-5.57,6.18-5.55,18.32v46.88h-27.1V674.09q0-22.05-17.71-22.06a19.11,19.11,0,0,0-14.94,6.18q-5.57,6.18-5.56,18.32v46.88h-27.07V630h25.84v10.8a34.1,34.1,0,0,1,12.77-9,42.86,42.86,0,0,1,16.59-3.12,40.08,40.08,0,0,1,17.88,3.93,31.61,31.61,0,0,1,12.87,11.33,38.39,38.39,0,0,1,14.51-11.29,45.94,45.94,0,0,1,19.19-4Q1275,628.58,1285.29,638.91Z" transform="translate(169.56 383.93)"/></g></g><path id="Pfad_30206" data-name="Pfad 30206" class="cls-5" d="M963.57,311.55A110.49,110.49,0,1,0,1074.06,422,110.48,110.48,0,0,0,963.57,311.55Zm75.66,80.6a16.14,16.14,0,0,1,0,22.79l-23,23-8.7-8.7,23-23a3.8,3.8,0,0,0,0-5.38l-7.86-7.87-6.47,6.47-8.72-8.69,15.17-15.17Zm-53.06,1.33,8.7-8.69L1020.1,410l-8.73,8.7Zm-15.5-47.1a16.14,16.14,0,0,1,22.79,0L1010,363l-18.49,18.5L975,398.07a16.13,16.13,0,0,1-22.78,0l-4.56-4.57,8.69-8.72,4.56,4.57a3.81,3.81,0,0,0,5.38,0l26.41-26.41-7.87-7.87a3.81,3.81,0,0,0-5.38,0l-3.77,3.78-8.75-8.7ZM935,399.43l-8.7-8.67,25.22-25.22,8.71,8.67Zm-1.34-53.05a16.14,16.14,0,0,1,22.79,0l23,23-8.7,8.7-23-23a3.81,3.81,0,0,0-5.38,0l-7.86,7.87,6.45,6.47-8.71,8.7L917.09,363Zm-45.77,45.77,16.58-16.56,35.09,35.08a16.14,16.14,0,0,1,0,22.79L935,438l-8.7-8.7,4.56-4.56a3.81,3.81,0,0,0,0-5.38L904.47,393l-7.86,7.87a3.81,3.81,0,0,0,0,5.38l3.78,3.78-8.68,8.69-3.8-3.79A16.13,16.13,0,0,1,887.91,392.15ZM941,450.58l-8.7,8.72L907,434.08l8.7-8.71Zm-53.06,1.33a16.13,16.13,0,0,1,0-22.78l23-23,8.7,8.7-23,23a3.8,3.8,0,0,0,0,5.38l7.86,7.86,6.47-6.47,8.7,8.7-15.17,15.17Zm68.54,45.77a16.14,16.14,0,0,1-22.79,0L917.08,481.1,952.16,446a16.13,16.13,0,0,1,22.78,0l4.56,4.56-8.69,8.72-4.55-4.55a3.8,3.8,0,0,0-5.38,0L934.5,481.12l7.87,7.87a3.81,3.81,0,0,0,5.38,0l3.77-3.78,8.73,8.71Zm35.65-53.05,8.71,8.7-25.23,25.23-8.69-8.7Zm1.34,53.05a16.11,16.11,0,0,1-22.78,0l-23-23,8.69-8.71,23,23a3.8,3.8,0,0,0,5.37,0l7.87-7.87-6.47-6.47,8.7-8.7L1010,481.11Zm45.77-45.77-16.59,16.59-35.06-35a16.13,16.13,0,0,1,0-22.78l4.56-4.56,8.7,8.7-4.55,4.55a3.81,3.81,0,0,0,0,5.39l26.4,26.4,7.87-7.86a3.83,3.83,0,0,0,0-5.39l-3.78-3.77,8.7-8.71,3.77,3.79a16.23,16.23,0,0,1,0,22.7Z" transform="translate(169.56 383.93)"/></g></g></g></g></svg>