<svg xmlns="http://www.w3.org/2000/svg" xmlns:xlink="http://www.w3.org/1999/xlink" viewBox="0 0 1920 1080"><defs><style>.cls-1{fill:url(#Unbenannter_Verlauf_12);}.cls-2{fill:#021851;}</style><radialGradient id="Unbenannter_Verlauf_12" cx="960" cy="540" r="778.85" gradientUnits="userSpaceOnUse"><stop offset="0" stop-color="#0fe"/><stop offset="1" stop-color="#0f8"/></radialGradient></defs><g id="Ebene_2" data-name="Ebene 2"><g id="Ebene_1-2" data-name="Ebene 1"><rect class="cls-1" width="1920" height="1080"/><g id="Ebene_2-2" data-name="Ebene 2"><g id="Ebene_1-2-2" data-name="Ebene 1-2"><g id="Amazing_Business_Ideas-7" data-name="Amazing Business Ideas-7"><g id="Gruppe_9136-7" data-name="Gruppe 9136-7"><path id="Pfad_17961-7" data-name="Pfad 17961-7" class="cls-2" d="M673.7,729.58a65.27,65.27,0,0,1-21.62-10.16l9.55-21.21a64.65,64.65,0,0,0,18.58,9.21,70,70,0,0,0,21.53,3.48q12,0,17.71-3.57a10.73,10.73,0,0,0,5.73-9.45,9,9,0,0,0-3.37-7.21,25.47,25.47,0,0,0-8.68-4.6q-5.29-1.76-14.33-3.82a199.24,199.24,0,0,1-22.75-6.6,37,37,0,0,1-15.21-10.59,28.59,28.59,0,0,1-6.34-19.44,33.8,33.8,0,0,1,5.73-19.18,38.44,38.44,0,0,1,17.28-13.62,70.64,70.64,0,0,1,28.22-5.06,93.34,93.34,0,0,1,22.76,2.81,67.59,67.59,0,0,1,19.45,8l-8.69,21.35a67.74,67.74,0,0,0-33.7-9.55q-11.81,0-17.46,3.83a11.62,11.62,0,0,0-5.62,10.07,9.86,9.86,0,0,0,6.51,9.29,102.9,102.9,0,0,0,19.89,6,197.81,197.81,0,0,1,22.75,6.6,37.78,37.78,0,0,1,15.2,10.42q6.33,7.13,6.34,19.27a33.29,33.29,0,0,1-5.82,19,39.16,39.16,0,0,1-17.46,13.62,71,71,0,0,1-28.3,5.06A99.64,99.64,0,0,1,673.7,729.58Z"/><path id="Pfad_17962-7" data-name="Pfad 17962-7" class="cls-2" d="M763.22,620.6a14.71,14.71,0,0,1-.73-20.79h0c.23-.26.48-.5.73-.74a17.17,17.17,0,0,1,12.16-4.35,17.62,17.62,0,0,1,12.16,4.17,13.35,13.35,0,0,1,4.69,10.42,14.73,14.73,0,0,1-4.69,11.2,17,17,0,0,1-12.16,4.43A17.2,17.2,0,0,1,763.22,620.6ZM761.84,638h27.09v93.43H761.84Z"/><path id="Pfad_17963-7" data-name="Pfad 17963-7" class="cls-2" d="M901.81,638v77.81q0,25.69-13.37,38.2t-39.07,12.51a98.3,98.3,0,0,1-25.71-3.3,56.4,56.4,0,0,1-20.14-9.55l10.76-19.45a44.4,44.4,0,0,0,14.94,7.72,59.52,59.52,0,0,0,18.06,2.87q14.07,0,20.76-6.34t6.68-19.19v-4q-10.59,11.64-29.52,11.64a49.59,49.59,0,0,1-23.54-5.62,43,43,0,0,1-16.93-15.89,47.77,47.77,0,0,1,0-47.24,43.06,43.06,0,0,1,16.93-15.89,49.59,49.59,0,0,1,23.54-5.62q20.32,0,30.9,13.37V638Zm-33.6,60.35a23.49,23.49,0,0,0,0-33.17,25,25,0,0,0-17.63-6.34,25.33,25.33,0,0,0-17.72,6.34,23.28,23.28,0,0,0-.25,32.92l.25.25a25.24,25.24,0,0,0,17.72,6.34A25,25,0,0,0,868.21,698.32Z"/><path id="Pfad_17964-7" data-name="Pfad 17964-7" class="cls-2" d="M1003.16,647q10.67,10.43,10.67,30.9v53.5H986.74V682.08q0-11.12-4.86-16.6a17.88,17.88,0,0,0-14-5.46,21.59,21.59,0,0,0-16.33,6.34q-6.07,6.33-6.07,18.84v46.2H918.35V638h25.87v10.95a36,36,0,0,1,13.36-9.14,46.52,46.52,0,0,1,17.54-3.19Q992.48,636.59,1003.16,647Z"/><path id="Pfad_17965-7" data-name="Pfad 17965-7" class="cls-2" d="M1123.77,638v93.44h-25.71V720.3a35.91,35.91,0,0,1-12.83,9.28,40.54,40.54,0,0,1-16.15,3.22q-18.42,0-29.18-10.6t-10.77-31.46V637.93h27.09v48.8q0,22.57,18.93,22.58a20.34,20.34,0,0,0,15.63-6.32q5.9-6.35,5.91-18.86V638Z"/><path id="Pfad_17966-7" data-name="Pfad 17966-7" class="cls-2" d="M1287.8,646.91q10.34,10.33,10.34,31v53.5H1271V682.09q0-11.12-4.6-16.59a16.14,16.14,0,0,0-13.11-5.46,19.34,19.34,0,0,0-15.11,6.18q-5.57,6.18-5.55,18.32v46.87h-27.1V682.09q0-22.05-17.71-22.05a19.11,19.11,0,0,0-14.94,6.18q-5.57,6.18-5.56,18.32v46.87h-27.07V638h25.84v10.8a34.22,34.22,0,0,1,12.77-9,43.24,43.24,0,0,1,16.59-3.12,40.23,40.23,0,0,1,17.88,3.94,31.66,31.66,0,0,1,12.87,11.32,38.53,38.53,0,0,1,14.5-11.29,45.86,45.86,0,0,1,19.2-4Q1277.48,636.58,1287.8,646.91Z"/></g></g><path id="Pfad_30206" data-name="Pfad 30206" class="cls-2" d="M966.08,319.55A110.49,110.49,0,1,0,1076.57,430,110.49,110.49,0,0,0,966.08,319.55Zm75.66,80.6a16.14,16.14,0,0,1,0,22.79l-23,23-8.7-8.71,23-23a3.8,3.8,0,0,0,0-5.38l-7.86-7.87-6.47,6.47-8.72-8.69,15.17-15.17Zm-53.06,1.34,8.7-8.7L1022.61,418l-8.73,8.71Zm-15.5-47.11a16.14,16.14,0,0,1,22.79,0L1012.55,371l-18.49,18.49-16.59,16.61a16.11,16.11,0,0,1-22.78,0l-4.56-4.56,8.69-8.72,4.56,4.56a3.8,3.8,0,0,0,5.38,0L995.17,371l-7.87-7.87a3.81,3.81,0,0,0-5.38,0l-3.77,3.78-8.75-8.7Zm-35.65,53.06-8.7-8.67,25.22-25.23,8.71,8.68Zm-1.34-53.06a16.14,16.14,0,0,1,22.79,0l23,23-8.7,8.69-23-23a3.81,3.81,0,0,0-5.38,0L937,371l6.45,6.47-8.71,8.7L919.6,371Zm-45.77,45.77L907,383.6l35.09,35.08a16.13,16.13,0,0,1,0,22.78L937.53,446l-8.7-8.7,4.56-4.56a3.81,3.81,0,0,0,0-5.38L907,401l-7.86,7.87a3.81,3.81,0,0,0,0,5.38L902.9,418l-8.68,8.7-3.8-3.8A16.13,16.13,0,0,1,890.42,400.15Zm53.06,58.43-8.7,8.73-25.23-25.23,8.7-8.7Zm-53.06,1.34a16.13,16.13,0,0,1,0-22.78l23-23,8.7,8.71-23,23a3.8,3.8,0,0,0,0,5.38l7.86,7.87,6.47-6.47,8.7,8.7L907,476.49ZM959,505.69a16.14,16.14,0,0,1-22.79,0l-16.58-16.58L954.67,454a16.13,16.13,0,0,1,22.78,0l4.56,4.55-8.69,8.73-4.55-4.56a3.81,3.81,0,0,0-5.38,0L937,489.13l7.87,7.86a3.8,3.8,0,0,0,5.38,0l3.77-3.78,8.73,8.72Zm35.65-53.06,8.71,8.71-25.23,25.22-8.69-8.69ZM996,505.69a16.13,16.13,0,0,1-22.78,0l-23-23,8.69-8.71,23,23a3.78,3.78,0,0,0,5.37,0l7.87-7.86-6.47-6.47,8.7-8.7,15.17,15.16Zm45.77-45.77-16.59,16.58-35.06-35a16.14,16.14,0,0,1,0-22.79l4.56-4.55,8.7,8.69-4.55,4.56a3.8,3.8,0,0,0,0,5.38l26.4,26.41,7.87-7.87a3.81,3.81,0,0,0,0-5.38l-3.78-3.78,8.7-8.7,3.77,3.78a16.25,16.25,0,0,1,0,22.71Z"/></g></g></g></g></svg>