<svg xmlns="http://www.w3.org/2000/svg" xmlns:xlink="http://www.w3.org/1999/xlink" viewBox="0 0 1920 1080"><defs><style>.cls-1{fill:url(#Unbenannter_Verlauf_11);}.cls-2{fill:#fff;}</style><radialGradient id="Unbenannter_Verlauf_11" cx="960" cy="540" r="778.85" gradientUnits="userSpaceOnUse"><stop offset="0" stop-color="#09f"/><stop offset="1" stop-color="#06f"/></radialGradient></defs><g id="Ebene_2" data-name="Ebene 2"><g id="Ebene_1-2" data-name="Ebene 1"><rect class="cls-1" width="1920" height="1080"/><g id="Ebene_2-2" data-name="Ebene 2"><g id="Ebene_1-2-2" data-name="Ebene 1-2"><g id="Amazing_Business_Ideas-7" data-name="Amazing Business Ideas-7"><g id="Gruppe_9136-7" data-name="Gruppe 9136-7"><path id="Pfad_17961-7" data-name="Pfad 17961-7" class="cls-2" d="M671.19,726.68a65.27,65.27,0,0,1-21.62-10.16l9.55-21.21a64.37,64.37,0,0,0,18.58,9.2A69.42,69.42,0,0,0,699.23,708q12,0,17.71-3.56a10.73,10.73,0,0,0,5.73-9.46,9,9,0,0,0-3.37-7.21,25.65,25.65,0,0,0-8.68-4.6q-5.29-1.74-14.33-3.82a197.23,197.23,0,0,1-22.75-6.6,37,37,0,0,1-15.21-10.58A28.61,28.61,0,0,1,652,642.72a33.85,33.85,0,0,1,5.73-19.19A38.49,38.49,0,0,1,675,609.91a70.38,70.38,0,0,1,28.21-5,93.82,93.82,0,0,1,22.76,2.8,67.33,67.33,0,0,1,19.45,8L736.74,637a67.64,67.64,0,0,0-33.7-9.55q-11.81,0-17.46,3.82A11.65,11.65,0,0,0,680,641.34a9.86,9.86,0,0,0,6.51,9.29,102.24,102.24,0,0,0,19.89,6,195.83,195.83,0,0,1,22.75,6.6,37.68,37.68,0,0,1,15.2,10.42q6.33,7.13,6.34,19.27a33.28,33.28,0,0,1-5.82,19,39,39,0,0,1-17.46,13.62,71,71,0,0,1-28.3,5.06A100,100,0,0,1,671.19,726.68Z"/><path id="Pfad_17962-7" data-name="Pfad 17962-7" class="cls-2" d="M760.72,617.7a14.71,14.71,0,0,1-.74-20.8h0c.23-.25.48-.5.74-.74a17.22,17.22,0,0,1,12.15-4.35A17.62,17.62,0,0,1,785,596a13.37,13.37,0,0,1,4.69,10.42A14.75,14.75,0,0,1,785,617.61,17,17,0,0,1,772.87,622,17.15,17.15,0,0,1,760.72,617.7Zm-1.39,17.37h27.09V728.5H759.33Z"/><path id="Pfad_17963-7" data-name="Pfad 17963-7" class="cls-2" d="M899.3,635.07v77.8q0,25.7-13.37,38.21t-39.07,12.5a97.46,97.46,0,0,1-25.71-3.3A56.06,56.06,0,0,1,801,750.73l10.76-19.45A44.25,44.25,0,0,0,826.71,739a59.25,59.25,0,0,0,18.06,2.86q14.07,0,20.76-6.33t6.68-19.2v-4Q861.62,724,842.69,724a49.63,49.63,0,0,1-23.53-5.61,43,43,0,0,1-16.94-15.89,47.77,47.77,0,0,1,0-47.24,43,43,0,0,1,16.94-15.9,49.63,49.63,0,0,1,23.53-5.61q20.32,0,30.9,13.37v-12Zm-33.6,60.35a23.5,23.5,0,0,0,0-33.18,25,25,0,0,0-17.63-6.33,25.28,25.28,0,0,0-17.72,6.33,23.29,23.29,0,0,0-.25,32.93l.25.25a25.33,25.33,0,0,0,17.72,6.34A25,25,0,0,0,865.7,695.42Z"/><path id="Pfad_17964-7" data-name="Pfad 17964-7" class="cls-2" d="M1000.65,644.1q10.67,10.41,10.67,30.9v53.5H984.23V679.17q0-11.11-4.86-16.59a17.86,17.86,0,0,0-14-5.47A21.63,21.63,0,0,0,949,663.45q-6.07,6.34-6.07,18.84V728.5H915.84V635.07h25.87V646a35.94,35.94,0,0,1,13.36-9.13,46.72,46.72,0,0,1,17.54-3.2Q990,633.68,1000.65,644.1Z"/><path id="Pfad_17965-7" data-name="Pfad 17965-7" class="cls-2" d="M1121.26,635.07v93.44h-25.71V717.39a36.06,36.06,0,0,1-12.83,9.29,40.32,40.32,0,0,1-16.15,3.21q-18.42,0-29.18-10.59t-10.77-31.47V635h27.09v48.81q0,22.57,18.93,22.58a20.35,20.35,0,0,0,15.63-6.33q5.89-6.35,5.91-18.85V635.07Z"/><path id="Pfad_17966-7" data-name="Pfad 17966-7" class="cls-2" d="M1285.29,644q10.34,10.34,10.34,31v53.5h-27.1V679.19q0-11.12-4.6-16.59a16.15,16.15,0,0,0-13.11-5.47,19.34,19.34,0,0,0-15.11,6.18q-5.57,6.18-5.55,18.32v46.88h-27.1V679.19q0-22.05-17.71-22.06a19.14,19.14,0,0,0-14.94,6.18q-5.57,6.18-5.56,18.32v46.88h-27.07V635.07h25.84v10.8a34.22,34.22,0,0,1,12.77-9,42.86,42.86,0,0,1,16.59-3.12,40.22,40.22,0,0,1,17.88,3.93A31.61,31.61,0,0,1,1223.73,649a38.39,38.39,0,0,1,14.51-11.29,45.78,45.78,0,0,1,19.19-4Q1275,633.67,1285.29,644Z"/></g></g><path id="Pfad_30206" data-name="Pfad 30206" class="cls-2" d="M963.57,316.65a110.49,110.49,0,1,0,110.49,110.49A110.48,110.48,0,0,0,963.57,316.65Zm75.66,80.6a16.14,16.14,0,0,1,0,22.79l-23,23-8.7-8.7,23-23a3.8,3.8,0,0,0,0-5.38l-7.86-7.86-6.47,6.46-8.72-8.69,15.17-15.17Zm-53.06,1.34,8.7-8.7,25.23,25.22-8.73,8.7Zm-15.5-47.11a16.14,16.14,0,0,1,22.79,0L1010,368.06l-18.49,18.5L975,403.17a16.13,16.13,0,0,1-22.78,0l-4.56-4.56,8.69-8.72,4.56,4.56a3.81,3.81,0,0,0,5.38,0L992.66,368l-7.87-7.86a3.8,3.8,0,0,0-5.38,0L975.64,364l-8.75-8.7ZM935,404.54l-8.7-8.68,25.22-25.22,8.71,8.67Zm-1.34-53.06a16.14,16.14,0,0,1,22.79,0l23,23-8.7,8.7-23-23a3.8,3.8,0,0,0-5.38,0L934.52,368l6.45,6.47-8.71,8.71-15.17-15.17Zm-45.77,45.77,16.58-16.56,35.09,35.08a16.14,16.14,0,0,1,0,22.79L935,443.12l-8.7-8.71,4.56-4.56a3.81,3.81,0,0,0,0-5.38l-26.41-26.38L896.61,406a3.83,3.83,0,0,0,0,5.39l3.78,3.77-8.68,8.69-3.8-3.79A16.13,16.13,0,0,1,887.91,397.25ZM941,455.68l-8.7,8.72L907,439.18l8.7-8.71ZM887.91,457a16.13,16.13,0,0,1,0-22.78l23-23,8.7,8.7-23,23a3.8,3.8,0,0,0,0,5.38l7.86,7.86,6.47-6.47,8.7,8.71-15.17,15.17Zm68.54,45.78a16.16,16.16,0,0,1-22.79,0L917.08,486.2l35.08-35.08a16.13,16.13,0,0,1,22.78,0l4.56,4.56-8.69,8.72-4.55-4.55a3.8,3.8,0,0,0-5.38,0L934.5,486.23l7.87,7.86a3.81,3.81,0,0,0,5.38,0l3.77-3.78,8.73,8.71Zm35.65-53.06,8.71,8.7-25.23,25.23L966.89,475Zm1.34,53.06a16.13,16.13,0,0,1-22.78,0l-23-23,8.69-8.71,23,23a3.8,3.8,0,0,0,5.37,0l7.87-7.87-6.47-6.46,8.7-8.71L1010,486.21ZM1039.21,457l-16.59,16.59-35.06-35a16.13,16.13,0,0,1,0-22.78l4.56-4.56,8.7,8.7-4.55,4.56a3.8,3.8,0,0,0,0,5.38l26.4,26.4,7.87-7.86a3.83,3.83,0,0,0,0-5.39l-3.78-3.77,8.7-8.7,3.77,3.78a16.23,16.23,0,0,1,0,22.7Z"/></g></g></g></g></svg>