<svg xmlns="http://www.w3.org/2000/svg" xmlns:xlink="http://www.w3.org/1999/xlink" viewBox="0 0 2259.13 1847.87"><defs><style>.cls-1{fill:none;}.cls-2{fill:url(#Unbenannter_Verlauf_11);}.cls-3{fill:#fff;}.cls-4{clip-path:url(#clip-path);}.cls-5{opacity:0.2;}</style><radialGradient id="Unbenannter_Verlauf_11" cx="1129.56" cy="923.93" r="778.85" gradientUnits="userSpaceOnUse"><stop offset="0" stop-color="#09f"/><stop offset="1" stop-color="#06f"/></radialGradient><clipPath id="clip-path" transform="translate(169.56 383.93)"><rect class="cls-1" width="1920" height="1080"/></clipPath></defs><g id="Ebene_2" data-name="Ebene 2"><g id="Ebene_1-2" data-name="Ebene 1"><rect class="cls-2" x="169.56" y="383.93" width="1920" height="1080"/><g id="Amazing_Business_Ideas" data-name="Amazing Business Ideas"><g id="Gruppe_9136" data-name="Gruppe 9136"><path id="Pfad_17961" data-name="Pfad 17961" class="cls-3" d="M827.09,582.79a57.34,57.34,0,0,1-18.89-8.88l8.34-18.51a56.86,56.86,0,0,0,16.23,8.05,61,61,0,0,0,18.81,3q10.47,0,15.47-3.11a9.37,9.37,0,0,0,5-8.26,7.91,7.91,0,0,0-3-6.3,22.5,22.5,0,0,0-7.58-4q-4.63-1.51-12.52-3.33a173.59,173.59,0,0,1-19.87-5.77,32.24,32.24,0,0,1-13.27-9.25,25,25,0,0,1-5.54-17,29.54,29.54,0,0,1,5-16.76,33.61,33.61,0,0,1,15.1-11.91,61.53,61.53,0,0,1,24.65-4.41,81.65,81.65,0,0,1,19.87,2.43,58.7,58.7,0,0,1,17,7l-7.58,18.66a59.17,59.17,0,0,0-29.43-8.34q-10.32,0-15.25,3.34a10.19,10.19,0,0,0-4.93,8.8,8.6,8.6,0,0,0,5.69,8.11,90.08,90.08,0,0,0,17.37,5.24,173.54,173.54,0,0,1,19.87,5.76,33,33,0,0,1,13.28,9.1q5.53,6.22,5.54,16.84a29,29,0,0,1-5.08,16.61,34.19,34.19,0,0,1-15.25,11.91,62.26,62.26,0,0,1-24.73,4.4A87.1,87.1,0,0,1,827.09,582.79Z" transform="translate(169.56 383.93)"/><path id="Pfad_17962" data-name="Pfad 17962" class="cls-3" d="M905.28,487.6a12.86,12.86,0,0,1,0-18.81,15,15,0,0,1,10.63-3.8,15.37,15.37,0,0,1,10.62,3.64,11.66,11.66,0,0,1,4.09,9.1,12.9,12.9,0,0,1-4.09,9.78,14.87,14.87,0,0,1-10.62,3.87A15,15,0,0,1,905.28,487.6Zm-1.21,15.17h23.67v81.61H904.07Z" transform="translate(169.56 383.93)"/><path id="Pfad_17963" data-name="Pfad 17963" class="cls-3" d="M1026.34,502.77v68q0,22.44-11.68,33.37T980.53,615a85.47,85.47,0,0,1-22.45-2.88,49.08,49.08,0,0,1-17.6-8.35l9.4-17a38.84,38.84,0,0,0,13,6.75,51.87,51.87,0,0,0,15.78,2.51q12.28,0,18.13-5.54t5.84-16.76v-3.5q-9.25,10.17-25.79,10.17a43.26,43.26,0,0,1-20.56-4.93,37.48,37.48,0,0,1-14.79-13.88,41.7,41.7,0,0,1,0-41.26,37.55,37.55,0,0,1,14.79-13.88,43.26,43.26,0,0,1,20.56-4.93q17.75,0,27,11.68V502.77ZM997,555.48a20.51,20.51,0,0,0,0-29,21.8,21.8,0,0,0-15.4-5.54,22.07,22.07,0,0,0-15.48,5.54,20.34,20.34,0,0,0,0,29A22.12,22.12,0,0,0,981.59,561a21.8,21.8,0,0,0,15.4-5.54Z" transform="translate(169.56 383.93)"/><path id="Pfad_17964" data-name="Pfad 17964" class="cls-3" d="M1114.86,510.65q9.33,9.11,9.33,27v46.73h-23.67V541.3q0-9.7-4.24-14.49A15.57,15.57,0,0,0,1084,522a18.79,18.79,0,0,0-14.26,5.53q-5.32,5.55-5.31,16.46v40.36h-23.66V502.77h22.61v9.55a31.38,31.38,0,0,1,11.68-8,40.76,40.76,0,0,1,15.32-2.81Q1105.54,501.55,1114.86,510.65Z" transform="translate(169.56 383.93)"/><path id="Pfad_17965" data-name="Pfad 17965" class="cls-3" d="M1220.22,502.77v81.61h-22.46v-9.71a31.39,31.39,0,0,1-11.22,8.12,35.4,35.4,0,0,1-14.11,2.8q-16.08,0-25.49-9.25t-9.4-27.46V502.76h23.66v42.63q0,19.73,16.53,19.72a17.78,17.78,0,0,0,13.66-5.52q5.14-5.55,5.15-16.47V502.77Z" transform="translate(169.56 383.93)"/><path id="Pfad_17966" data-name="Pfad 17966" class="cls-3" d="M1363.5,510.58q9,9,9,27.08v46.73h-23.67V541.3q0-9.7-4-14.49a14.13,14.13,0,0,0-11.45-4.77,16.9,16.9,0,0,0-13.2,5.38q-4.86,5.39-4.85,16v41h-23.67V541.3q0-19.26-15.47-19.26a16.73,16.73,0,0,0-13,5.38q-4.86,5.39-4.85,16v41h-23.67V502.77h22.61v9.4a29.81,29.81,0,0,1,11.15-7.89,37.6,37.6,0,0,1,14.48-2.73A35.32,35.32,0,0,1,1298.5,505a27.79,27.79,0,0,1,11.23,9.94,33.49,33.49,0,0,1,12.66-9.86,40,40,0,0,1,16.76-3.49Q1354.48,501.55,1363.5,510.58Z" transform="translate(169.56 383.93)"/></g></g><path class="cls-3" d="M644,443.49A96.51,96.51,0,1,0,740.5,540,96.52,96.52,0,0,0,644,443.49Zm66.09,70.4a14.1,14.1,0,0,1,0,19.9l-20.14,20.14-7.6-7.6,20.14-20.14a3.33,3.33,0,0,0,0-4.7l-6.88-6.88-5.65,5.65-7.6-7.6,13.25-13.25Zm-46.35,1.17,7.6-7.6,22,22-7.6,7.61Zm-13.54-41.15a14.11,14.11,0,0,1,19.91,0l14.48,14.49-16.15,16.15L653.94,519a14.08,14.08,0,0,1-19.9,0l-4-4,7.6-7.6,4,4a3.32,3.32,0,0,0,4.7,0l23-23-6.89-6.89a3.34,3.34,0,0,0-4.7,0l-3.3,3.3-7.6-7.6Zm-31.14,46.35-7.6-7.6,22-22,7.6,7.6Zm-1.17-46.35a14.09,14.09,0,0,1,19.9,0l20.14,20.14-7.6,7.6-20.14-20.14a3.34,3.34,0,0,0-4.7,0l-6.88,6.89,5.65,5.65-7.61,7.6L603.39,488.4Zm-40,40,14.49-14.48L623,530.05a14.08,14.08,0,0,1,0,19.9l-4,4-7.6-7.6,4-4a3.32,3.32,0,0,0,0-4.7l-23-23-6.89,6.88a3.32,3.32,0,0,0,0,4.7l3.3,3.3-7.6,7.61-3.3-3.31A14.08,14.08,0,0,1,577.9,513.89Zm46.35,51.05-7.6,7.6-22-22,7.6-7.61Zm-46.35,1.17a14.08,14.08,0,0,1,0-19.9L598,526.07l7.6,7.6L585.5,553.8a3.34,3.34,0,0,0,0,4.71l6.89,6.88,5.65-5.65,7.6,7.6-13.25,13.25Zm59.88,40a14.1,14.1,0,0,1-19.9,0L603.4,591.6,634,561a14.08,14.08,0,0,1,19.9,0l4,4-7.6,7.6-4-4a3.32,3.32,0,0,0-4.7,0l-23,23,6.88,6.89a3.34,3.34,0,0,0,4.7,0l3.3-3.3,7.6,7.6Zm31.15-46.35,7.6,7.6-22,22-7.6-7.6Zm1.16,46.35a14.09,14.09,0,0,1-19.9,0L630.06,586l7.6-7.6,20.13,20.14a3.34,3.34,0,0,0,4.7,0l6.89-6.89L663.73,586l7.6-7.6,13.25,13.25Zm40-40-14.49,14.48L665,550a14.08,14.08,0,0,1,0-19.9l4-4,7.6,7.6-4,4a3.32,3.32,0,0,0,0,4.7l23,23,6.89-6.88a3.33,3.33,0,0,0,0-4.7l-3.3-3.3,7.61-7.61,3.3,3.3A14.11,14.11,0,0,1,710.08,566.11Z" transform="translate(169.56 383.93)"/><g class="cls-4"><g id="Bildlaufgruppe_3" data-name="Bildlaufgruppe 3" class="cls-5"><g id="Gruppe_15003" data-name="Gruppe 15003"><g id="Gruppe_14995-3" data-name="Gruppe 14995-3"><rect id="Rechteck_1881-3" data-name="Rechteck 1881-3" class="cls-3" x="1487.23" y="1091.71" width="58.79" height="170.42" transform="translate(-218.44 1801.06) rotate(-45)"/><path id="Pfad_30188-3" data-name="Pfad 30188-3" class="cls-3" d="M1566.76,797.8l37.66-37.66a18.2,18.2,0,0,1,25.71,0l110.13,110.13,41.56-41.57L1671.69,718.57a77,77,0,0,0-108.83,0l-79.23,79.24,72.46,72.46,41.57-41.57Z" transform="translate(169.56 383.93)"/><path id="Pfad_30189-3" data-name="Pfad 30189-3" class="cls-3" d="M1423.43,1218.88l-37.65-37.67a18.19,18.19,0,0,1,0-25.71l110.12-110.13-41.56-41.56L1344.2,1113.94a77.05,77.05,0,0,0,0,108.84l79.23,79.22,72.46-72.46L1454.33,1188Z" transform="translate(169.56 383.93)"/><path id="Pfad_30190-3" data-name="Pfad 30190-3" class="cls-3" d="M1781.13,760.14a18.19,18.19,0,0,1,25.71,0l37.65,37.66-126,126a18.2,18.2,0,0,1-25.71,0L1671,902.05l-41.56,41.56,21.78,21.78a77,77,0,0,0,108.82,0l79.24-79.22,88.35-88.36-79.23-79.22a77,77,0,0,0-108.83,0l-18,18,41.56,41.56Z" transform="translate(169.56 383.93)"/><rect id="Rechteck_1882-3" data-name="Rechteck 1882-3" class="cls-3" x="1523.5" y="861.61" width="170.41" height="58.78" transform="translate(10.71 1782.43) rotate(-45)"/><path id="Pfad_30191-3" data-name="Pfad 30191-3" class="cls-3" d="M1987.82,941.13l37.67,37.66a18.2,18.2,0,0,1,0,25.71l-110.12,110.13,41.56,41.55,110.13-110.12a77,77,0,0,0,0-108.83L1987.83,858l-72.46,72.46L1956.94,972Z" transform="translate(169.56 383.93)"/><rect id="Rechteck_1883-3" data-name="Rechteck 1883-3" class="cls-3" x="1865.24" y="897.88" width="58.79" height="170.41" transform="translate(29.35 2011.58) rotate(-45)"/><path id="Pfad_30192-3" data-name="Pfad 30192-3" class="cls-3" d="M2025.49,1155.5a18.22,18.22,0,0,1,0,25.72l-37.66,37.65-126-126a18.2,18.2,0,0,1,0-25.71l21.78-21.77L1842,1003.82l-21.77,21.77a77,77,0,0,0,0,108.83L1987.83,1302l79.23-79.24a77,77,0,0,0,0-108.83L2049,1095.88l-41.56,41.58Z" transform="translate(169.56 383.93)"/><path id="Pfad_30193-3" data-name="Pfad 30193-3" class="cls-3" d="M1385.77,1004.5a18.2,18.2,0,0,1,0-25.71l37.66-37.66,126,126a18.2,18.2,0,0,1,0,25.71l-21.77,21.77,41.57,41.56,21.77-21.77a77,77,0,0,0,0-108.84L1423.44,858l-79.24,79.23a77,77,0,0,0,0,108.83l18,18.06,41.56-41.58Z" transform="translate(169.56 383.93)"/><rect id="Rechteck_1884-3" data-name="Rechteck 1884-3" class="cls-3" x="1717.35" y="1239.61" width="170.41" height="58.78" transform="translate(-199.8 2030.21) rotate(-45)"/><path id="Pfad_30194-3" data-name="Pfad 30194-3" class="cls-3" d="M1844.5,1362.2l-37.65,37.67a18.21,18.21,0,0,1-25.72,0L1671,1289.73l-41.57,41.58,110.13,110.12a77,77,0,0,0,108.84,0l79.23-79.23-72.46-72.47-41.57,41.57Z" transform="translate(169.56 383.93)"/><path id="Pfad_30195-3" data-name="Pfad 30195-3" class="cls-3" d="M1630.13,1399.86a18.2,18.2,0,0,1-25.71,0l-37.66-37.66,126-126a18.21,18.21,0,0,1,25.72,0l21.77,21.77,41.56-41.57-21.77-21.77a77,77,0,0,0-108.83,0L1483.63,1362.2l79.23,79.23a77,77,0,0,0,108.83,0l18-18-41.57-41.56Z" transform="translate(169.56 383.93)"/></g></g></g><g id="Bildlaufgruppe_3-2" data-name="Bildlaufgruppe 3" class="cls-5"><g id="Gruppe_15003-2" data-name="Gruppe 15003"><g id="Gruppe_14995-3-2" data-name="Gruppe 14995-3"><rect id="Rechteck_1881-3-2" data-name="Rechteck 1881-3" class="cls-3" x="-4.03" y="11.71" width="58.79" height="170.42" transform="translate(108.46 430.26) rotate(-45)"/><path id="Pfad_30188-3-2" data-name="Pfad 30188-3" class="cls-3" d="M75.5-282.2l37.66-37.66a18.2,18.2,0,0,1,25.71,0L249-209.73l41.56-41.57L180.43-361.43a77,77,0,0,0-108.83,0L-7.63-282.19l72.46,72.46L106.4-251.3Z" transform="translate(169.56 383.93)"/><path id="Pfad_30189-3-2" data-name="Pfad 30189-3" class="cls-3" d="M-67.83,138.88l-37.65-37.67a18.19,18.19,0,0,1,0-25.71L4.63-34.63-36.93-76.19-147.06,33.94a77.05,77.05,0,0,0,0,108.84L-67.83,222,4.63,149.54-36.93,108Z" transform="translate(169.56 383.93)"/><path id="Pfad_30190-3-2" data-name="Pfad 30190-3" class="cls-3" d="M289.87-319.86a18.19,18.19,0,0,1,25.71,0l37.66,37.66-126,126a18.2,18.2,0,0,1-25.71,0l-21.78-21.76-41.56,41.56L160-114.61a77,77,0,0,0,108.82,0L348-193.84l88.35-88.36-79.23-79.22a77,77,0,0,0-108.83,0l-18.05,18.05,41.56,41.56Z" transform="translate(169.56 383.93)"/><rect id="Rechteck_1882-3-2" data-name="Rechteck 1882-3" class="cls-3" x="32.24" y="-218.39" width="170.41" height="58.78" transform="translate(337.61 411.62) rotate(-45)"/><path id="Pfad_30191-3-2" data-name="Pfad 30191-3" class="cls-3" d="M496.56-138.87l37.67,37.66a18.2,18.2,0,0,1,0,25.71L424.11,34.63l41.56,41.55L575.8-33.94a77,77,0,0,0,0-108.83L496.57-222l-72.46,72.46L465.68-108Z" transform="translate(169.56 383.93)"/><rect id="Rechteck_1883-3-2" data-name="Rechteck 1883-3" class="cls-3" x="373.98" y="-182.12" width="58.79" height="170.41" transform="translate(356.24 640.78) rotate(-45)"/><path id="Pfad_30192-3-2" data-name="Pfad 30192-3" class="cls-3" d="M534.23,75.5a18.22,18.22,0,0,1,0,25.72l-37.66,37.65-126-126a18.2,18.2,0,0,1,0-25.71l21.78-21.77L350.76-76.18,329-54.41a77,77,0,0,0,0,108.83L496.57,222l79.23-79.24a77,77,0,0,0,0-108.83L557.74,15.88,516.18,57.46Z" transform="translate(169.56 383.93)"/><path id="Pfad_30193-3-2" data-name="Pfad 30193-3" class="cls-3" d="M-105.49-75.5a18.2,18.2,0,0,1,0-25.71l37.66-37.66,126,126a18.2,18.2,0,0,1,0,25.71L36.41,34.63,78,76.19,99.75,54.42a77,77,0,0,0,0-108.84L-67.82-222l-79.24,79.23a77,77,0,0,0,0,108.83L-129-15.88l41.56-41.58Z" transform="translate(169.56 383.93)"/><rect id="Rechteck_1884-3-2" data-name="Rechteck 1884-3" class="cls-3" x="226.09" y="159.61" width="170.41" height="58.78" transform="translate(127.09 659.41) rotate(-45)"/><path id="Pfad_30194-3-2" data-name="Pfad 30194-3" class="cls-3" d="M353.24,282.2l-37.65,37.67a18.21,18.21,0,0,1-25.72,0L179.74,209.73l-41.57,41.58L248.3,361.43a77,77,0,0,0,108.84,0l79.23-79.23-72.46-72.47L322.34,251.3Z" transform="translate(169.56 383.93)"/><path id="Pfad_30195-3-2" data-name="Pfad 30195-3" class="cls-3" d="M138.87,319.86a18.2,18.2,0,0,1-25.71,0L75.51,282.2l126-126a18.21,18.21,0,0,1,25.72,0L249,178l41.56-41.57-21.77-21.77a77,77,0,0,0-108.83,0L-7.63,282.2,71.6,361.43a77,77,0,0,0,108.83,0l18-18.05-41.57-41.56Z" transform="translate(169.56 383.93)"/></g></g></g></g><g id="Amazing_Business_Ideas-2" data-name="Amazing Business Ideas"><g id="Gruppe_9136-2" data-name="Gruppe 9136"><path id="Pfad_17961-2" data-name="Pfad 17961" class="cls-3" d="M827.09,582.79a57.34,57.34,0,0,1-18.89-8.88l8.34-18.51a56.86,56.86,0,0,0,16.23,8.05,61,61,0,0,0,18.81,3q10.47,0,15.47-3.11a9.37,9.37,0,0,0,5-8.26,7.91,7.91,0,0,0-3-6.3,22.5,22.5,0,0,0-7.58-4q-4.63-1.51-12.52-3.33a173.59,173.59,0,0,1-19.87-5.77,32.24,32.24,0,0,1-13.27-9.25,25,25,0,0,1-5.54-17,29.54,29.54,0,0,1,5-16.76,33.61,33.61,0,0,1,15.1-11.91,61.53,61.53,0,0,1,24.65-4.41,81.65,81.65,0,0,1,19.87,2.43,58.7,58.7,0,0,1,17,7l-7.58,18.66a59.17,59.17,0,0,0-29.43-8.34q-10.32,0-15.25,3.34a10.19,10.19,0,0,0-4.93,8.8,8.6,8.6,0,0,0,5.69,8.11,90.08,90.08,0,0,0,17.37,5.24,173.54,173.54,0,0,1,19.87,5.76,33,33,0,0,1,13.28,9.1q5.53,6.22,5.54,16.84a29,29,0,0,1-5.08,16.61,34.19,34.19,0,0,1-15.25,11.91,62.26,62.26,0,0,1-24.73,4.4A87.1,87.1,0,0,1,827.09,582.79Z" transform="translate(169.56 383.93)"/><path id="Pfad_17962-2" data-name="Pfad 17962" class="cls-3" d="M905.28,487.6a12.86,12.86,0,0,1,0-18.81,15,15,0,0,1,10.63-3.8,15.37,15.37,0,0,1,10.62,3.64,11.66,11.66,0,0,1,4.09,9.1,12.9,12.9,0,0,1-4.09,9.78,14.87,14.87,0,0,1-10.62,3.87A15,15,0,0,1,905.28,487.6Zm-1.21,15.17h23.67v81.61H904.07Z" transform="translate(169.56 383.93)"/><path id="Pfad_17963-2" data-name="Pfad 17963" class="cls-3" d="M1026.34,502.77v68q0,22.44-11.68,33.37T980.53,615a85.47,85.47,0,0,1-22.45-2.88,49.08,49.08,0,0,1-17.6-8.35l9.4-17a38.84,38.84,0,0,0,13,6.75,51.87,51.87,0,0,0,15.78,2.51q12.28,0,18.13-5.54t5.84-16.76v-3.5q-9.25,10.17-25.79,10.17a43.26,43.26,0,0,1-20.56-4.93,37.48,37.48,0,0,1-14.79-13.88,41.7,41.7,0,0,1,0-41.26,37.55,37.55,0,0,1,14.79-13.88,43.26,43.26,0,0,1,20.56-4.93q17.75,0,27,11.68V502.77ZM997,555.48a20.51,20.51,0,0,0,0-29,21.8,21.8,0,0,0-15.4-5.54,22.07,22.07,0,0,0-15.48,5.54,20.34,20.34,0,0,0,0,29A22.12,22.12,0,0,0,981.59,561a21.8,21.8,0,0,0,15.4-5.54Z" transform="translate(169.56 383.93)"/><path id="Pfad_17964-2" data-name="Pfad 17964" class="cls-3" d="M1114.86,510.65q9.33,9.11,9.33,27v46.73h-23.67V541.3q0-9.7-4.24-14.49A15.57,15.57,0,0,0,1084,522a18.79,18.79,0,0,0-14.26,5.53q-5.32,5.55-5.31,16.46v40.36h-23.66V502.77h22.61v9.55a31.38,31.38,0,0,1,11.68-8,40.76,40.76,0,0,1,15.32-2.81Q1105.54,501.55,1114.86,510.65Z" transform="translate(169.56 383.93)"/><path id="Pfad_17965-2" data-name="Pfad 17965" class="cls-3" d="M1220.22,502.77v81.61h-22.46v-9.71a31.39,31.39,0,0,1-11.22,8.12,35.4,35.4,0,0,1-14.11,2.8q-16.08,0-25.49-9.25t-9.4-27.46V502.76h23.66v42.63q0,19.73,16.53,19.72a17.78,17.78,0,0,0,13.66-5.52q5.14-5.55,5.15-16.47V502.77Z" transform="translate(169.56 383.93)"/><path id="Pfad_17966-2" data-name="Pfad 17966" class="cls-3" d="M1363.5,510.58q9,9,9,27.08v46.73h-23.67V541.3q0-9.7-4-14.49a14.13,14.13,0,0,0-11.45-4.77,16.9,16.9,0,0,0-13.2,5.38q-4.86,5.39-4.85,16v41h-23.67V541.3q0-19.26-15.47-19.26a16.73,16.73,0,0,0-13,5.38q-4.86,5.39-4.85,16v41h-23.67V502.77h22.61v9.4a29.81,29.81,0,0,1,11.15-7.89,37.6,37.6,0,0,1,14.48-2.73A35.32,35.32,0,0,1,1298.5,505a27.79,27.79,0,0,1,11.23,9.94,33.49,33.49,0,0,1,12.66-9.86,40,40,0,0,1,16.76-3.49Q1354.48,501.55,1363.5,510.58Z" transform="translate(169.56 383.93)"/></g></g><path class="cls-3" d="M644,443.49A96.51,96.51,0,1,0,740.5,540,96.52,96.52,0,0,0,644,443.49Zm66.09,70.4a14.1,14.1,0,0,1,0,19.9l-20.14,20.14-7.6-7.6,20.14-20.14a3.33,3.33,0,0,0,0-4.7l-6.88-6.88-5.65,5.65-7.6-7.6,13.25-13.25Zm-46.35,1.17,7.6-7.6,22,22-7.6,7.61Zm-13.54-41.15a14.11,14.11,0,0,1,19.91,0l14.48,14.49-16.15,16.15L653.94,519a14.08,14.08,0,0,1-19.9,0l-4-4,7.6-7.6,4,4a3.32,3.32,0,0,0,4.7,0l23-23-6.89-6.89a3.34,3.34,0,0,0-4.7,0l-3.3,3.3-7.6-7.6Zm-31.14,46.35-7.6-7.6,22-22,7.6,7.6Zm-1.17-46.35a14.09,14.09,0,0,1,19.9,0l20.14,20.14-7.6,7.6-20.14-20.14a3.34,3.34,0,0,0-4.7,0l-6.88,6.89,5.65,5.65-7.61,7.6L603.39,488.4Zm-40,40,14.49-14.48L623,530.05a14.08,14.08,0,0,1,0,19.9l-4,4-7.6-7.6,4-4a3.32,3.32,0,0,0,0-4.7l-23-23-6.89,6.88a3.32,3.32,0,0,0,0,4.7l3.3,3.3-7.6,7.61-3.3-3.31A14.08,14.08,0,0,1,577.9,513.89Zm46.35,51.05-7.6,7.6-22-22,7.6-7.61Zm-46.35,1.17a14.08,14.08,0,0,1,0-19.9L598,526.07l7.6,7.6L585.5,553.8a3.34,3.34,0,0,0,0,4.71l6.89,6.88,5.65-5.65,7.6,7.6-13.25,13.25Zm59.88,40a14.1,14.1,0,0,1-19.9,0L603.4,591.6,634,561a14.08,14.08,0,0,1,19.9,0l4,4-7.6,7.6-4-4a3.32,3.32,0,0,0-4.7,0l-23,23,6.88,6.89a3.34,3.34,0,0,0,4.7,0l3.3-3.3,7.6,7.6Zm31.15-46.35,7.6,7.6-22,22-7.6-7.6Zm1.16,46.35a14.09,14.09,0,0,1-19.9,0L630.06,586l7.6-7.6,20.13,20.14a3.34,3.34,0,0,0,4.7,0l6.89-6.89L663.73,586l7.6-7.6,13.25,13.25Zm40-40-14.49,14.48L665,550a14.08,14.08,0,0,1,0-19.9l4-4,7.6,7.6-4,4a3.32,3.32,0,0,0,0,4.7l23,23,6.89-6.88a3.33,3.33,0,0,0,0-4.7l-3.3-3.3,7.61-7.61,3.3,3.3A14.11,14.11,0,0,1,710.08,566.11Z" transform="translate(169.56 383.93)"/></g></g></svg>