<svg xmlns="http://www.w3.org/2000/svg" xmlns:xlink="http://www.w3.org/1999/xlink" viewBox="0 0 1920 1080"><defs><style>.cls-1{fill:url(#Unbenannter_Verlauf_12);}.cls-2{fill:#021851;}</style><radialGradient id="Unbenannter_Verlauf_12" cx="960" cy="540" r="778.85" gradientUnits="userSpaceOnUse"><stop offset="0" stop-color="#0fe"/><stop offset="1" stop-color="#0f8"/></radialGradient></defs><g id="Ebene_2" data-name="Ebene 2"><g id="Ebene_1-2" data-name="Ebene 1"><rect class="cls-1" width="1920" height="1080"/><g id="Amazing_Business_Ideas" data-name="Amazing Business Ideas"><g id="Gruppe_9136" data-name="Gruppe 9136"><path id="Pfad_17961" data-name="Pfad 17961" class="cls-2" d="M827.09,582.79a57.34,57.34,0,0,1-18.89-8.88l8.34-18.51a56.86,56.86,0,0,0,16.23,8.05,61,61,0,0,0,18.81,3q10.47,0,15.47-3.11a9.37,9.37,0,0,0,5-8.26,7.91,7.91,0,0,0-3-6.3,22.5,22.5,0,0,0-7.58-4q-4.63-1.51-12.52-3.33a173.59,173.59,0,0,1-19.87-5.77,32.24,32.24,0,0,1-13.27-9.25,25,25,0,0,1-5.54-17,29.54,29.54,0,0,1,5-16.76,33.61,33.61,0,0,1,15.1-11.91,61.53,61.53,0,0,1,24.65-4.41,81.65,81.65,0,0,1,19.87,2.43,58.7,58.7,0,0,1,17,7l-7.58,18.66a59.17,59.17,0,0,0-29.43-8.34q-10.32,0-15.25,3.34a10.19,10.19,0,0,0-4.93,8.8,8.6,8.6,0,0,0,5.69,8.11,90.08,90.08,0,0,0,17.37,5.24,173.54,173.54,0,0,1,19.87,5.76,33,33,0,0,1,13.28,9.1q5.53,6.22,5.54,16.84a29,29,0,0,1-5.08,16.61,34.19,34.19,0,0,1-15.25,11.91,62.26,62.26,0,0,1-24.73,4.4A87.1,87.1,0,0,1,827.09,582.79Z"/><path id="Pfad_17962" data-name="Pfad 17962" class="cls-2" d="M905.28,487.6a12.86,12.86,0,0,1,0-18.81,15,15,0,0,1,10.63-3.8,15.37,15.37,0,0,1,10.62,3.64,11.66,11.66,0,0,1,4.09,9.1,12.9,12.9,0,0,1-4.09,9.78,14.87,14.87,0,0,1-10.62,3.87A15,15,0,0,1,905.28,487.6Zm-1.21,15.17h23.67v81.61H904.07Z"/><path id="Pfad_17963" data-name="Pfad 17963" class="cls-2" d="M1026.34,502.77v68q0,22.44-11.68,33.37T980.53,615a85.47,85.47,0,0,1-22.45-2.88,49.08,49.08,0,0,1-17.6-8.35l9.4-17a38.84,38.84,0,0,0,13,6.75,51.87,51.87,0,0,0,15.78,2.51q12.28,0,18.13-5.54t5.84-16.76v-3.5q-9.25,10.17-25.79,10.17a43.26,43.26,0,0,1-20.56-4.93,37.48,37.48,0,0,1-14.79-13.88,41.7,41.7,0,0,1,0-41.26,37.55,37.55,0,0,1,14.79-13.88,43.26,43.26,0,0,1,20.56-4.93q17.75,0,27,11.68V502.77ZM997,555.48a20.51,20.51,0,0,0,0-29,21.8,21.8,0,0,0-15.4-5.54,22.07,22.07,0,0,0-15.48,5.54,20.34,20.34,0,0,0,0,29A22.12,22.12,0,0,0,981.59,561a21.8,21.8,0,0,0,15.4-5.54Z"/><path id="Pfad_17964" data-name="Pfad 17964" class="cls-2" d="M1114.86,510.65q9.33,9.11,9.33,27v46.73h-23.67V541.3q0-9.7-4.24-14.49A15.57,15.57,0,0,0,1084,522a18.79,18.79,0,0,0-14.26,5.53q-5.32,5.55-5.31,16.46v40.36h-23.66V502.77h22.61v9.55a31.38,31.38,0,0,1,11.68-8,40.76,40.76,0,0,1,15.32-2.81Q1105.54,501.55,1114.86,510.65Z"/><path id="Pfad_17965" data-name="Pfad 17965" class="cls-2" d="M1220.22,502.77v81.61h-22.46v-9.71a31.39,31.39,0,0,1-11.22,8.12,35.4,35.4,0,0,1-14.11,2.8q-16.08,0-25.49-9.25t-9.4-27.46V502.76h23.66v42.63q0,19.73,16.53,19.72a17.78,17.78,0,0,0,13.66-5.52q5.14-5.55,5.15-16.47V502.77Z"/><path id="Pfad_17966" data-name="Pfad 17966" class="cls-2" d="M1363.5,510.58q9,9,9,27.08v46.73h-23.67V541.3q0-9.7-4-14.49a14.13,14.13,0,0,0-11.45-4.77,16.9,16.9,0,0,0-13.2,5.38q-4.86,5.39-4.85,16v41h-23.67V541.3q0-19.26-15.47-19.26a16.73,16.73,0,0,0-13,5.38q-4.86,5.39-4.85,16v41h-23.67V502.77h22.61v9.4a29.81,29.81,0,0,1,11.15-7.89,37.6,37.6,0,0,1,14.48-2.73A35.32,35.32,0,0,1,1298.5,505a27.79,27.79,0,0,1,11.23,9.94,33.49,33.49,0,0,1,12.66-9.86,40,40,0,0,1,16.76-3.49Q1354.48,501.55,1363.5,510.58Z"/></g></g><path class="cls-2" d="M644,443.49A96.51,96.51,0,1,0,740.5,540,96.52,96.52,0,0,0,644,443.49Zm66.09,70.4a14.1,14.1,0,0,1,0,19.9l-20.14,20.14-7.6-7.6,20.14-20.14a3.33,3.33,0,0,0,0-4.7l-6.88-6.88-5.65,5.65-7.6-7.6,13.25-13.25Zm-46.35,1.17,7.6-7.6,22,22-7.6,7.61Zm-13.54-41.15a14.11,14.11,0,0,1,19.91,0l14.48,14.49-16.15,16.15L653.94,519a14.08,14.08,0,0,1-19.9,0l-4-4,7.6-7.6,4,4a3.32,3.32,0,0,0,4.7,0l23-23-6.89-6.89a3.34,3.34,0,0,0-4.7,0l-3.3,3.3-7.6-7.6Zm-31.14,46.35-7.6-7.6,22-22,7.6,7.6Zm-1.17-46.35a14.09,14.09,0,0,1,19.9,0l20.14,20.14-7.6,7.6-20.14-20.14a3.34,3.34,0,0,0-4.7,0l-6.88,6.89,5.65,5.65-7.61,7.6L603.39,488.4Zm-40,40,14.49-14.48L623,530.05a14.08,14.08,0,0,1,0,19.9l-4,4-7.6-7.6,4-4a3.32,3.32,0,0,0,0-4.7l-23-23-6.89,6.88a3.32,3.32,0,0,0,0,4.7l3.3,3.3-7.6,7.61-3.3-3.31A14.08,14.08,0,0,1,577.9,513.89Zm46.35,51.05-7.6,7.6-22-22,7.6-7.61Zm-46.35,1.17a14.08,14.08,0,0,1,0-19.9L598,526.07l7.6,7.6L585.5,553.8a3.34,3.34,0,0,0,0,4.71l6.89,6.88,5.65-5.65,7.6,7.6-13.25,13.25Zm59.88,40a14.1,14.1,0,0,1-19.9,0L603.4,591.6,634,561a14.08,14.08,0,0,1,19.9,0l4,4-7.6,7.6-4-4a3.32,3.32,0,0,0-4.7,0l-23,23,6.88,6.89a3.34,3.34,0,0,0,4.7,0l3.3-3.3,7.6,7.6Zm31.15-46.35,7.6,7.6-22,22-7.6-7.6Zm1.16,46.35a14.09,14.09,0,0,1-19.9,0L630.06,586l7.6-7.6,20.13,20.14a3.34,3.34,0,0,0,4.7,0l6.89-6.89L663.73,586l7.6-7.6,13.25,13.25Zm40-40-14.49,14.48L665,550a14.08,14.08,0,0,1,0-19.9l4-4,7.6,7.6-4,4a3.32,3.32,0,0,0,0,4.7l23,23,6.89-6.88a3.33,3.33,0,0,0,0-4.7l-3.3-3.3,7.61-7.61,3.3,3.3A14.11,14.11,0,0,1,710.08,566.11Z"/></g></g></svg>