<svg xmlns="http://www.w3.org/2000/svg" xmlns:xlink="http://www.w3.org/1999/xlink" viewBox="0 0 637.04 637.04"><defs><style>.cls-1{fill:url(#Unbenannter_Verlauf_11);}.cls-2{fill:#fff;}</style><radialGradient id="Unbenannter_Verlauf_11" cx="3543.35" cy="7336.75" r="0.22" gradientTransform="translate(-7086370.07 -15201434.31) scale(2000 2072)" gradientUnits="userSpaceOnUse"><stop offset="0" stop-color="#09f"/><stop offset="1" stop-color="#06f"/></radialGradient></defs><g id="Ebene_2" data-name="Ebene 2"><g id="Ebene_1-2" data-name="Ebene 1"><g id="Gruppe_15007" data-name="Gruppe 15007"><g id="Layer_1-10" data-name="Layer 1-10"><rect id="Rechteck_1-10" data-name="Rechteck 1-10" class="cls-1" width="637.04" height="637.04"/></g></g><g id="Amazing_Business_Ideas" data-name="Amazing Business Ideas"><g id="Gruppe_9136" data-name="Gruppe 9136"><path id="Pfad_17961" data-name="Pfad 17961" class="cls-2" d="M243.87,342.55a32,32,0,0,1-10.61-5l4.69-10.4a31.73,31.73,0,0,0,9.12,4.52,34.43,34.43,0,0,0,10.56,1.71c3.92,0,6.81-.59,8.69-1.75a5.29,5.29,0,0,0,2.81-4.64,4.45,4.45,0,0,0-1.66-3.54,12.58,12.58,0,0,0-4.26-2.26c-1.73-.57-4.08-1.19-7-1.87A98.2,98.2,0,0,1,245,316.1a18.13,18.13,0,0,1-7.46-5.2,14.09,14.09,0,0,1-3.11-9.54,16.66,16.66,0,0,1,2.81-9.41,19,19,0,0,1,8.48-6.69,34.55,34.55,0,0,1,13.85-2.48,46.15,46.15,0,0,1,11.16,1.37,32.9,32.9,0,0,1,9.54,3.92L276,298.55a33.29,33.29,0,0,0-16.53-4.69c-3.86,0-6.72.63-8.56,1.88a5.73,5.73,0,0,0-2.77,4.94,4.85,4.85,0,0,0,3.2,4.56,50.26,50.26,0,0,0,9.75,2.94,96.19,96.19,0,0,1,11.16,3.24,18.41,18.41,0,0,1,7.46,5.11q3.11,3.5,3.11,9.45a16.37,16.37,0,0,1-2.85,9.34,19.25,19.25,0,0,1-8.57,6.68,34.91,34.91,0,0,1-13.89,2.47A48.64,48.64,0,0,1,243.87,342.55Z"/><path id="Pfad_17962" data-name="Pfad 17962" class="cls-2" d="M287.79,289.09a7.22,7.22,0,0,1,0-10.57,8.45,8.45,0,0,1,6-2.13,8.65,8.65,0,0,1,6,2.05,6.55,6.55,0,0,1,2.3,5.11,7.22,7.22,0,0,1-2.3,5.49,8.35,8.35,0,0,1-6,2.18A8.5,8.5,0,0,1,287.79,289.09Zm-.68,8.52H300.4v45.84H287.11Z"/><path id="Pfad_17963" data-name="Pfad 17963" class="cls-2" d="M355.78,297.61v38.17q0,12.6-6.56,18.74t-19.17,6.14A47.89,47.89,0,0,1,317.44,359a27.61,27.61,0,0,1-9.88-4.69l5.28-9.54a21.61,21.61,0,0,0,7.33,3.79A29,29,0,0,0,329,350q6.9,0,10.18-3.11t3.28-9.41v-2q-5.19,5.72-14.49,5.71a24.28,24.28,0,0,1-11.54-2.76,21.14,21.14,0,0,1-8.31-7.8,23.46,23.46,0,0,1,0-23.17,21.13,21.13,0,0,1,8.31-7.8A24.41,24.41,0,0,1,328,296.93q10,0,15.17,6.56v-5.88Zm-16.49,29.61a11.52,11.52,0,0,0,0-16.28,12.26,12.26,0,0,0-8.64-3.11,12.45,12.45,0,0,0-8.7,3.11,11.44,11.44,0,0,0,0,16.28,12.4,12.4,0,0,0,8.7,3.1,12.16,12.16,0,0,0,8.64-3.11Z"/><path id="Pfad_17964" data-name="Pfad 17964" class="cls-2" d="M405.5,302q5.24,5.11,5.24,15.17v26.24h-13.3v-24.2q0-5.44-2.38-8.13a8.73,8.73,0,0,0-6.9-2.69,10.6,10.6,0,0,0-8,3.11q-3,3.12-3,9.25v22.66H363.88V297.61h12.7V303a17.66,17.66,0,0,1,6.56-4.48,22.8,22.8,0,0,1,8.6-1.57Q400.26,296.93,405.5,302Z"/><path id="Pfad_17965" data-name="Pfad 17965" class="cls-2" d="M464.67,297.61v45.84H452.06V338a17.63,17.63,0,0,1-6.31,4.56,19.93,19.93,0,0,1-7.92,1.58q-9,0-14.31-5.2t-5.29-15.42v-25.9h13.3v23.94q0,11.07,9.28,11.08a10,10,0,0,0,7.67-3.11q2.89-3.11,2.89-9.25V297.61Z"/><path id="Pfad_17966" data-name="Pfad 17966" class="cls-2" d="M545.14,302q5.07,5.06,5.07,15.21v26.24H536.92v-24.2q0-5.44-2.26-8.13a8,8,0,0,0-6.43-2.69,9.47,9.47,0,0,0-7.41,3c-1.82,2-2.73,5-2.73,9v23H504.8v-24.2q0-10.81-8.69-10.82a9.41,9.41,0,0,0-7.33,3c-1.82,2-2.73,5-2.72,9v23h-13.3V297.61h12.7v5.28a16.77,16.77,0,0,1,6.26-4.43,21.21,21.21,0,0,1,8.14-1.53,19.62,19.62,0,0,1,8.78,1.92,15.5,15.5,0,0,1,6.3,5.58,18.8,18.8,0,0,1,7.11-5.54,22.64,22.64,0,0,1,9.42-2Q540.08,296.93,545.14,302Z"/></g></g><path class="cls-2" d="M141,264.31a54.21,54.21,0,1,0,54.2,54.21A54.21,54.21,0,0,0,141,264.31Zm37.11,39.55a7.92,7.92,0,0,1,0,11.18l-11.31,11.3-4.26-4.26,11.3-11.31a1.86,1.86,0,0,0,0-2.64L170,304.26l-3.18,3.17-4.26-4.27,7.44-7.44Zm-26,.65,4.27-4.26,12.38,12.37-4.27,4.27Zm-7.6-23.11a7.92,7.92,0,0,1,11.18,0l8.13,8.14-9.07,9.07-8.14,8.14a7.91,7.91,0,0,1-11.17,0l-2.24-2.24,4.27-4.27,2.24,2.24a1.86,1.86,0,0,0,2.64,0l12.94-12.94-3.87-3.87a1.86,1.86,0,0,0-2.64,0l-1.85,1.85-4.27-4.26Zm-17.49,26-4.27-4.27,12.38-12.37,4.26,4.27Zm-.66-26a7.92,7.92,0,0,1,11.18,0l11.31,11.31L144.59,297l-11.31-11.31a1.86,1.86,0,0,0-2.64,0l-3.87,3.87,3.18,3.17L125.68,297l-7.44-7.44Zm-22.45,22.46,8.14-8.14,17.21,17.21a7.91,7.91,0,0,1,0,11.18L127,326.34l-4.27-4.26,2.24-2.24a1.88,1.88,0,0,0,0-2.64l-13-12.94-3.86,3.87a1.86,1.86,0,0,0,0,2.64l1.85,1.85-4.27,4.27L103.92,315A7.92,7.92,0,0,1,103.92,303.86Zm26,28.67-4.27,4.27L113.3,324.42l4.27-4.27Zm-26,.65a7.91,7.91,0,0,1,0-11.17l11.31-11.31L119.5,315l-11.31,11.31a1.86,1.86,0,0,0,0,2.64l3.87,3.87,3.17-3.17,4.27,4.27-7.45,7.44Zm33.63,22.46a7.92,7.92,0,0,1-11.18,0l-8.13-8.14,17.21-17.21a7.91,7.91,0,0,1,11.17,0l2.24,2.24-4.27,4.27-2.23-2.24a1.86,1.86,0,0,0-2.64,0l-13,12.94,3.87,3.87a1.86,1.86,0,0,0,2.64,0l1.86-1.85,4.26,4.26Zm17.49-26,4.27,4.27-12.37,12.37L142.67,342Zm.66,26a7.92,7.92,0,0,1-11.18,0l-11.31-11.31,4.27-4.27,11.31,11.31a1.86,1.86,0,0,0,2.64,0l3.87-3.87-3.18-3.17,4.27-4.27,7.45,7.44Zm22.45-22.46L170,341.32l-17.21-17.21a7.92,7.92,0,0,1,0-11.18L155,310.7l4.27,4.26-2.23,2.24a1.86,1.86,0,0,0,0,2.64L170,332.78l3.87-3.87a1.87,1.87,0,0,0,0-2.64L172,324.42l4.27-4.27,1.85,1.86A7.9,7.9,0,0,1,178.15,333.18Z"/></g></g></svg>