<svg xmlns="http://www.w3.org/2000/svg" xmlns:xlink="http://www.w3.org/1999/xlink" viewBox="0 0 2000 2000"><defs><style>.cls-1{fill:url(#Unbenannter_Verlauf_11);}.cls-2{fill:#fff;}</style><radialGradient id="Unbenannter_Verlauf_11" cx="5404.39" cy="-4312.73" r="0.68" gradientTransform="translate(-10807752.21 8936961.39) scale(2000 2072)" gradientUnits="userSpaceOnUse"><stop offset="0" stop-color="#09f"/><stop offset="1" stop-color="#06f"/></radialGradient></defs><g id="Ebene_2" data-name="Ebene 2"><g id="Ebene_1-2" data-name="Ebene 1"><g id="Gruppe_15023" data-name="Gruppe 15023"><g id="Gruppe_14992" data-name="Gruppe 14992"><g id="Layer_1-5" data-name="Layer 1-5"><rect id="Rechteck_1-5" data-name="Rechteck 1-5" class="cls-1" width="2000" height="2000"/></g></g><g id="Gruppe_14996" data-name="Gruppe 14996"><g id="Gruppe_14995" data-name="Gruppe 14995"><rect id="Rechteck_1881" data-name="Rechteck 1881" class="cls-2" x="586.23" y="1022.19" width="111.37" height="322.88" transform="translate(-648.94 800.58) rotate(-45)"/><path id="Pfad_30188" data-name="Pfad 30188" class="cls-2" d="M736.91,465.35,808.25,394a34.45,34.45,0,0,1,48.7,0L1065.6,602.65l78.75-78.75L935.71,315.25c-56.86-56.86-149.35-56.86-206.2,0L579.41,465.36,716.69,602.65l78.75-78.75Z"/><path id="Pfad_30189" data-name="Pfad 30189" class="cls-2" d="M465.36,1263.1,394,1191.74a34.46,34.46,0,0,1,0-48.7L602.63,934.39,523.9,855.64,315.25,1064.29c-56.86,56.86-56.84,149.37,0,206.22l150.1,150.08L602.63,1283.3l-78.73-78.73Z"/><path id="Pfad_30190" data-name="Pfad 30190" class="cls-2" d="M1143,394a34.47,34.47,0,0,1,48.7,0l71.35,71.35L1024.36,704.11a34.47,34.47,0,0,1-48.7,0l-41.27-41.24L855.64,741.6l41.27,41.26c56.85,56.83,149.33,56.83,206.18,0l150.11-150.1,167.39-167.4-150.1-150.08c-56.84-56.85-149.35-56.87-206.2,0l-34.19,34.19,78.73,78.75Z"/><rect id="Rechteck_1882" data-name="Rechteck 1882" class="cls-2" x="654.95" y="586.24" width="322.85" height="111.36" transform="translate(-214.79 765.27) rotate(-45)"/><path id="Pfad_30191" data-name="Pfad 30191" class="cls-2" d="M1534.64,736.91,1606,808.25a34.47,34.47,0,0,1,0,48.7L1397.37,1065.6l78.73,78.73L1684.75,935.7c56.85-56.85,56.85-149.34,0-206.2l-150.1-150.1L1397.36,716.69l78.75,78.75Z"/><rect id="Rechteck_1883" data-name="Rechteck 1883" class="cls-2" x="1302.39" y="654.95" width="111.37" height="322.85" transform="translate(-179.49 1199.42) rotate(-45)"/><path id="Pfad_30192" data-name="Pfad 30192" class="cls-2" d="M1606,1143a34.52,34.52,0,0,1,0,48.72l-71.35,71.34L1295.9,1024.35a34.44,34.44,0,0,1,0-48.69l41.25-41.25-78.75-78.75-41.25,41.24c-56.85,56.86-56.85,149.35,0,206.2l317.5,317.5,150.1-150.11c56.85-56.85,56.85-149.35,0-206.2l-34.2-34.2-78.75,78.77Z"/><path id="Pfad_30193" data-name="Pfad 30193" class="cls-2" d="M394,857a34.45,34.45,0,0,1,0-48.7l71.34-71.36L704.09,975.66a34.45,34.45,0,0,1,0,48.7l-41.24,41.24,78.75,78.75,41.24-41.24c56.86-56.86,56.87-149.37,0-206.22L465.36,579.41,315.25,729.51c-56.86,56.85-56.86,149.35,0,206.2l34.18,34.2,78.75-78.77Z"/><rect id="Rechteck_1884" data-name="Rechteck 1884" class="cls-2" x="1022.2" y="1302.4" width="322.86" height="111.36" transform="translate(-613.63 1234.72) rotate(-45)"/><path id="Pfad_30194" data-name="Pfad 30194" class="cls-2" d="M1263.11,1534.65,1191.76,1606a34.48,34.48,0,0,1-48.71,0L934.4,1397.35l-78.75,78.77,208.64,208.63c56.86,56.85,149.35,56.85,206.2,0l150.12-150.1-137.3-137.3-78.75,78.75Z"/><path id="Pfad_30195" data-name="Pfad 30195" class="cls-2" d="M857,1606a34.47,34.47,0,0,1-48.7,0l-71.34-71.35L975.64,1295.9a34.48,34.48,0,0,1,48.71,0l41.25,41.25,78.75-78.75-41.25-41.25c-56.85-56.85-149.34-56.83-206.2,0l-317.5,317.5,150.1,150.1c56.85,56.85,149.35,56.85,206.2,0l34.19-34.19-78.75-78.75Z"/></g></g></g></g></g></svg>